<?xml version="1.0" encoding="UTF-8" standalone="no"?>
<!-- Created with Inkscape (http://www.inkscape.org/) -->

<svg
   xmlns:dc="http://purl.org/dc/elements/1.1/"
   xmlns:cc="http://creativecommons.org/ns#"
   xmlns:rdf="http://www.w3.org/1999/02/22-rdf-syntax-ns#"
   xmlns:svg="http://www.w3.org/2000/svg"
   xmlns="http://www.w3.org/2000/svg"
   xmlns:sodipodi="http://sodipodi.sourceforge.net/DTD/sodipodi-0.dtd"
   xmlns:inkscape="http://www.inkscape.org/namespaces/inkscape"
   sodipodi:docname="platonic-front.svg"
   inkscape:version="0.48.4 r9939"
   version="1.1"
   id="svg2"
   height="1052.3622047"
   width="744.09448819"
   enable-background="new">
  <defs
     id="defs4">
    <inkscape:perspective
       sodipodi:type="inkscape:persp3d"
       inkscape:vp_x="-8.0812204 : 515.82703 : 1"
       inkscape:vp_y="0 : 1000 : 0"
       inkscape:vp_z="736.01326 : 515.82703 : 1"
       inkscape:persp3d-origin="363.96602 : 340.43333 : 1"
       id="perspective2998" />
  </defs>
  <sodipodi:namedview
     id="base"
     pagecolor="#ffffff"
     bordercolor="#666666"
     borderopacity="1.0"
     inkscape:pageopacity="0.0"
     inkscape:pageshadow="2"
     inkscape:zoom="0.49497475"
     inkscape:cx="262.58284"
     inkscape:cy="650.44982"
     inkscape:document-units="px"
     inkscape:current-layer="layer1"
     showgrid="false"
     showguides="true"
     inkscape:guide-bbox="true"
     inkscape:window-width="1024"
     inkscape:window-height="706"
     inkscape:window-x="-8"
     inkscape:window-y="-8"
     inkscape:window-maximized="1" />
  <metadata
     id="metadata7">
    <rdf:RDF>
      <cc:Work
         rdf:about="">
        <dc:format>image/svg+xml</dc:format>
        <dc:type
           rdf:resource="http://purl.org/dc/dcmitype/StillImage" />
        <dc:title />
      </cc:Work>
    </rdf:RDF>
  </metadata>
  <g
     inkscape:groupmode="layer"
     id="layer2"
     inkscape:label="Layer#1"
     style="display:inline" />
  <g
     inkscape:label="Layer 1"
     inkscape:groupmode="layer"
     id="layer1"
     style="display:inline">
    <g
       id="g3241"
       transform="matrix(0.39891255,1.6755445,-1.6755445,0.39891255,629.17004,-180.81345)"
       style="fill:none;fill-opacity:0;stroke:#000000;stroke-width:1.59210563000000000;stroke-linecap:butt;stroke-miterlimit:4;stroke-opacity:1;stroke-dasharray:none;stroke-dashoffset:0">
      <path
         inkscape:connector-curvature="0"
         id="path3227"
         d="m 198.39286,201.82647 11.07143,-12.85715 21.07142,-17.5 1.42858,4.28572 -22.5,19.82143 z"
         style="fill:none;fill-opacity:0;stroke:#000000;stroke-width:1.59210563000000000;stroke-linecap:butt;stroke-linejoin:miter;stroke-miterlimit:4;stroke-opacity:1;stroke-dasharray:none;stroke-dashoffset:0" />
      <path
         sodipodi:nodetypes="ccccc"
         inkscape:connector-curvature="0"
         id="path3229"
         d="m 198.61607,201.51397 6.02679,27.99107 14.64285,13.21428 4.78986,-20.22283 -14.522,-26.83073"
         style="fill:none;fill-opacity:0;stroke:#000000;stroke-width:1.59210563000000000;stroke-linecap:butt;stroke-linejoin:miter;stroke-miterlimit:4;stroke-opacity:1;stroke-dasharray:none;stroke-dashoffset:0" />
      <path
         sodipodi:nodetypes="ccccc"
         inkscape:connector-curvature="0"
         id="path3231"
         d="m 219.59821,243.07647 24.86608,6.78571 22.5,-14.46428 -10.35715,-17.32143 -32.54426,4.43086"
         style="fill:none;fill-opacity:0;stroke:#000000;stroke-width:1.59210563000000000;stroke-linecap:butt;stroke-linejoin:miter;stroke-miterlimit:4;stroke-opacity:1;stroke-dasharray:none;stroke-dashoffset:0" />
      <path
         sodipodi:nodetypes="ccccc"
         inkscape:connector-curvature="0"
         id="path3233"
         d="m 267.1875,235.33094 9.0625,-18.50447 -4.64286,-28.75 -12.14285,-1.60715 -2.76786,31.33929"
         style="fill:none;fill-opacity:0;stroke:#000000;stroke-width:1.59210563000000000;stroke-linecap:butt;stroke-linejoin:miter;stroke-miterlimit:4;stroke-opacity:1;stroke-dasharray:none;stroke-dashoffset:0" />
      <path
         sodipodi:nodetypes="cc"
         inkscape:connector-curvature="0"
         id="path3235"
         d="m 232.03639,175.91194 27.46039,10.67283"
         style="fill:none;fill-opacity:0;stroke:#000000;stroke-width:1.59210563000000000;stroke-linecap:butt;stroke-linejoin:miter;stroke-miterlimit:4;stroke-opacity:1;stroke-dasharray:none;stroke-dashoffset:0" />
      <path
         sodipodi:nodetypes="ccc"
         inkscape:connector-curvature="0"
         id="path3239"
         d="m 230.6168,171.10135 25.09749,9.11797 15.91452,7.84632"
         style="fill:none;fill-opacity:0;stroke:#000000;stroke-width:1.59210563000000000;stroke-linecap:butt;stroke-linejoin:miter;stroke-miterlimit:4;stroke-opacity:1;stroke-dasharray:none;stroke-dashoffset:0" />
    </g>
    <g
       style="font-size:40px;font-style:oblique;font-variant:normal;font-weight:normal;font-stretch:normal;text-align:center;line-height:125%;letter-spacing:0px;word-spacing:0px;text-anchor:middle;fill:#000000;fill-opacity:1;stroke:#000000;stroke-opacity:1;font-family:CMU Classical Serif;-inkscape-font-specification:CMU Classical Serif Oblique"
       id="text4146">
      <path
         d="m 254.63284,416.26648 c 0,-2.93293 0.97331,-5.65266 2.91992,-8.15918 1.94661,-2.50649 4.02669,-3.75975 6.24024,-3.75977 1.52017,2e-5 2.64036,0.78656 3.36059,2.35962 0.2132,-0.93341 0.53303,-2.22003 0.95948,-3.85986 0.42641,-1.63979 0.7796,-3.01979 1.05957,-4.14001 0.27993,-1.12018 0.4199,-1.78689 0.41992,-2.00013 -2e-5,-0.48011 -0.47996,-0.7269 -1.43982,-0.74035 -0.9599,-0.0134 -1.43984,-0.20648 -1.43982,-0.57923 -2e-5,-0.42722 0.4134,-0.68071 1.24024,-0.76049 2.7197,-0.24005 4.09299,-0.36008 4.11987,-0.36011 0.42641,3e-5 0.63962,0.18679 0.63965,0.5603 -3e-5,0.21324 -0.0533,0.47976 -0.15992,0.79956 l -5.31982,21.15967 c -0.37355,1.46729 -0.56032,2.52075 -0.5603,3.1604 -2e-5,1.06689 0.34666,1.60034 1.04004,1.60034 0.40037,0 0.7739,-0.22664 1.1206,-0.67993 0.34666,-0.45329 0.59996,-0.90657 0.75989,-1.35986 0.15989,-0.45329 0.33995,-1.04675 0.54016,-1.7804 0.20018,-0.73364 0.3133,-1.15376 0.33936,-1.26038 0.10658,-0.37352 0.33323,-0.56029 0.67993,-0.5603 0.37351,1e-5 0.56028,0.17335 0.5603,0.52002 -2e-5,0.13347 -0.0265,0.30681 -0.0793,0.52002 -0.45331,1.76026 -0.96682,3.12032 -1.54053,4.0802 -0.57375,0.95988 -1.40708,1.43982 -2.5,1.43982 -0.74627,0 -1.41949,-0.22664 -2.01966,-0.67993 -0.60019,-0.45329 -1.00689,-1.15967 -1.22009,-2.11914 -1.68051,1.86605 -3.29387,2.79907 -4.84009,2.79907 -1.44043,0 -2.61393,-0.57983 -3.5205,-1.7395 -0.90658,-1.15967 -1.35987,-2.64648 -1.35987,-4.46045 z m 2.71973,1.76025 c -1e-5,0.90658 0.17333,1.71998 0.52002,2.44019 0.34667,0.72021 0.91999,1.08032 1.71997,1.08032 0.90738,0 1.84101,-0.46 2.8009,-1.38 0.95987,-0.92 1.61315,-1.74011 1.95984,-2.46033 0.0529,-0.13346 0.43273,-1.56677 1.13953,-4.29993 0.70677,-2.73314 1.06016,-4.23318 1.06018,-4.50012 -2e-5,-0.63963 -0.22666,-1.40624 -0.67993,-2.2998 -0.45331,-0.89354 -1.14666,-1.34032 -2.08008,-1.34034 -1.17352,2e-5 -2.30673,0.81341 -3.39966,2.44019 -0.85369,1.22641 -1.5739,2.99297 -2.16064,5.29968 -0.58676,2.30673 -0.88014,3.98011 -0.88013,5.02014 z"
         style="fill:#000000;stroke:#000000;stroke-opacity:1;fill-opacity:1"
         id="path4155" />
      <path
         d="m 275.14188,415.90637 c -1e-5,-2.90608 1.06668,-5.55907 3.20007,-7.95898 2.13337,-2.39989 4.45332,-3.59984 6.95984,-3.59986 1.76024,2e-5 3.17361,0.61322 4.24011,1.8396 1.06647,1.22642 1.59971,2.81292 1.59973,4.75953 -2e-5,2.9069 -1.06671,5.55359 -3.20007,7.94006 -2.1334,2.38647 -4.45334,3.57971 -6.95984,3.57971 -1.73341,0 -3.14006,-0.6132 -4.21997,-1.8396 -1.07992,-1.2264 -1.61988,-2.79988 -1.61987,-4.72046 z m 2.83935,1.56006 c -10e-6,1.28011 0.27343,2.28028 0.82031,3.00049 0.54687,0.72021 1.28702,1.08032 2.22046,1.08032 1.41357,0 2.74698,-0.73323 4.00025,-2.19971 0.95945,-1.14664 1.7525,-2.75349 2.37915,-4.82055 0.62661,-2.06705 0.93992,-3.78051 0.93994,-5.14038 -2e-5,-1.2801 -0.27997,-2.28677 -0.83984,-3.02002 -0.55992,-0.73322 -1.30658,-1.09984 -2.23999,-1.09986 -1.35988,2e-5 -2.67987,0.74668 -3.95997,2.23999 -0.95948,1.11981 -1.75273,2.72646 -2.37976,4.81995 -0.62704,2.09351 -0.94056,3.80677 -0.94055,5.13977 z"
         style="fill:#000000;stroke:#000000;stroke-opacity:1;fill-opacity:1"
         id="path4157" />
      <path
         d="m 295.49222,416.26648 c -10e-6,-2.93293 0.9733,-5.65266 2.91992,-8.15918 1.94661,-2.50649 4.02668,-3.75975 6.24023,-3.75977 1.52017,2e-5 2.64037,0.78656 3.3606,2.35962 0.2132,-0.93341 0.53302,-2.22003 0.95947,-3.85986 0.42642,-1.63979 0.77961,-3.01979 1.05957,-4.14001 0.27993,-1.12018 0.41991,-1.78689 0.41992,-2.00013 -1e-5,-0.48011 -0.47995,-0.7269 -1.43981,-0.74035 -0.9599,-0.0134 -1.43984,-0.20648 -1.43982,-0.57923 -2e-5,-0.42722 0.41339,-0.68071 1.24023,-0.76049 2.71971,-0.24005 4.093,-0.36008 4.11987,-0.36011 0.42641,3e-5 0.63963,0.18679 0.63965,0.5603 -2e-5,0.21324 -0.0533,0.47976 -0.15991,0.79956 l -5.31982,21.15967 c -0.37356,1.46729 -0.56032,2.52075 -0.56031,3.1604 -1e-5,1.06689 0.34667,1.60034 1.04004,1.60034 0.40037,0 0.77391,-0.22664 1.12061,-0.67993 0.34666,-0.45329 0.59995,-0.90657 0.75989,-1.35986 0.15989,-0.45329 0.33994,-1.04675 0.54016,-1.7804 0.20017,-0.73364 0.31329,-1.15376 0.33935,-1.26038 0.10659,-0.37352 0.33323,-0.56029 0.67993,-0.5603 0.37352,1e-5 0.56028,0.17335 0.56031,0.52002 -3e-5,0.13347 -0.0265,0.30681 -0.0793,0.52002 -0.45331,1.76026 -0.96682,3.12032 -1.54053,4.0802 -0.57375,0.95988 -1.40708,1.43982 -2.5,1.43982 -0.74627,0 -1.41949,-0.22664 -2.01965,-0.67993 -0.60019,-0.45329 -1.00689,-1.15967 -1.22009,-2.11914 -1.68052,1.86605 -3.29388,2.79907 -4.84009,2.79907 -1.44044,0 -2.61394,-0.57983 -3.52051,-1.7395 -0.90658,-1.15967 -1.35987,-2.64648 -1.35986,-4.46045 z m 2.71972,1.76025 c 0,0.90658 0.17334,1.71998 0.52002,2.44019 0.34668,0.72021 0.92,1.08032 1.71997,1.08032 0.90738,0 1.84102,-0.46 2.80091,-1.38 0.95986,-0.92 1.61314,-1.74011 1.95984,-2.46033 0.0529,-0.13346 0.43272,-1.56677 1.13952,-4.29993 0.70677,-2.73314 1.06017,-4.23318 1.06018,-4.50012 -10e-6,-0.63963 -0.22666,-1.40624 -0.67993,-2.2998 -0.4533,-0.89354 -1.14666,-1.34032 -2.08008,-1.34034 -1.17351,2e-5 -2.30673,0.81341 -3.39965,2.44019 -0.85369,1.22641 -1.57391,2.99297 -2.16065,5.29968 -0.58676,2.30673 -0.88013,3.98011 -0.88013,5.02014 z"
         style="fill:#000000;stroke:#000000;stroke-opacity:1;fill-opacity:1"
         id="path4159" />
      <path
         d="m 316.20145,415.38757 c -1e-5,-3.22671 1.05997,-5.8734 3.17993,-7.94006 2.11994,-2.06663 4.37987,-3.09996 6.77978,-3.09998 1.14663,2e-5 2.1,0.31334 2.86011,0.93995 0.76007,0.62664 1.14012,1.44654 1.14014,2.45971 -2e-5,0.3467 -0.0533,0.70009 -0.15991,1.06018 -0.10663,0.36012 -0.29991,0.78676 -0.57984,1.27991 -0.27996,0.49318 -0.78004,0.95318 -1.50024,1.38001 -0.72023,0.42684 -1.60036,0.74687 -2.64038,0.96008 -1.38673,0.26612 -3.26662,0.39918 -5.63965,0.39917 -0.4533,1.97348 -0.67994,3.4135 -0.67993,4.32007 -10e-6,1.20036 0.24657,2.2406 0.73974,3.12072 0.49316,0.88013 1.27319,1.32019 2.34009,1.32019 1.09293,0 2.27273,-0.3068 3.53943,-0.92041 1.26667,-0.6136 2.36672,-1.4803 3.30017,-2.60009 0.40037,-0.507 0.70718,-0.7605 0.92041,-0.7605 0.13345,0 0.26019,0.0535 0.38025,0.16052 0.12002,0.10702 0.18003,0.24028 0.18005,0.39978 -2e-5,0.34668 -0.3467,0.8667 -1.04004,1.56006 -0.69337,0.69336 -1.7267,1.37329 -3.09997,2.03979 -1.37331,0.66651 -2.79359,0.99976 -4.26087,0.99976 -1.7334,0 -3.12663,-0.64656 -4.17968,-1.9397 -1.05307,-1.29313 -1.5796,-3.00618 -1.57959,-5.13916 z m 3.6792,-3.48022 c 5.86668,10e-6 8.80003,-1.40014 8.80004,-4.20044 -1e-5,-0.7202 -0.23317,-1.30695 -0.69946,-1.76025 -0.46632,-0.45328 -1.07301,-0.67992 -1.82007,-0.67994 -0.4004,2e-5 -0.84718,0.0867 -1.34033,0.26001 -0.49318,0.17336 -1.05978,0.46673 -1.69983,0.88013 -0.64006,0.41343 -1.25347,1.10007 -1.84021,2.05994 -0.58676,0.95989 -1.05347,2.10674 -1.40014,3.44055 z"
         style="fill:#000000;stroke:#000000;stroke-opacity:1;fill-opacity:1"
         id="path4161" />
      <path
         d="m 334.43875,415.90637 c 0,-2.93293 1.0734,-5.59264 3.22022,-7.97912 2.1468,-2.38646 4.46003,-3.5797 6.93969,-3.57972 1.22639,2e-5 2.24628,0.31985 3.0597,0.95948 0.81337,0.63966 1.22007,1.46648 1.22009,2.48047 -2e-5,0.82602 -0.21324,1.4325 -0.63965,1.81945 -0.42645,0.38698 -0.89316,0.58046 -1.40015,0.58045 -0.37355,10e-6 -0.68686,-0.12003 -0.93994,-0.36011 -0.25311,-0.24006 -0.37965,-0.54686 -0.37964,-0.92041 -10e-6,-0.2132 0.0399,-0.43985 0.11963,-0.67993 0.0797,-0.24006 0.27973,-0.50007 0.59998,-0.78003 0.32021,-0.27993 0.74685,-0.44676 1.27991,-0.50049 -0.53306,-1.11977 -1.49294,-1.67967 -2.87964,-1.67969 -0.42726,2e-5 -0.88747,0.0934 -1.38062,0.28015 -0.49318,0.18679 -1.07301,0.52024 -1.7395,1.00037 -0.66652,0.48016 -1.31308,1.28013 -1.9397,2.3999 -0.62663,1.11981 -1.15357,2.47967 -1.58081,4.07959 -0.48015,1.76026 -0.72022,3.22714 -0.72021,4.40064 -1e-5,1.14665 0.26,2.11996 0.78003,2.91992 0.52001,0.79997 1.31346,1.19995 2.38037,1.19995 0.96027,0 1.90042,-0.17334 2.82043,-0.52002 0.91999,-0.34668 1.71996,-0.81339 2.3999,-1.40014 0.67992,-0.58675 1.15314,-1.01339 1.41968,-1.27991 0.2665,-0.26652 0.53323,-0.57312 0.80017,-0.9198 l 0.0403,-0.0403 c 0.18634,-0.13345 0.37962,-0.12674 0.57983,0.0202 0.20018,0.14689 0.30027,0.31352 0.30029,0.49987 -2e-5,0.31983 -0.34018,0.82642 -1.02051,1.51978 -0.68035,0.69336 -1.71367,1.37329 -3.09997,2.03979 -1.38633,0.66651 -2.82614,0.99976 -4.31946,0.99976 -1.76026,0 -3.18706,-0.6132 -4.28039,-1.8396 -1.09335,-1.2264 -1.64002,-2.79988 -1.64002,-4.72046 z"
         style="fill:#000000;stroke:#000000;stroke-opacity:1;fill-opacity:1"
         id="path4163" />
      <path
         d="m 352.75784,416.26648 c 0,-2.93293 0.96679,-5.65266 2.90039,-8.15918 1.93359,-2.50649 4.02017,-3.75975 6.25977,-3.75977 1.3867,2e-5 2.5069,0.78656 3.36059,2.35962 0.23925,-1.01316 0.75926,-1.51976 1.56006,-1.51977 0.31981,10e-6 0.58633,0.10662 0.79956,0.31982 0.2132,0.21323 0.31981,0.46633 0.31983,0.75928 -2e-5,0.10662 -0.0533,0.36012 -0.15991,0.7605 l -2.51954,10.08056 c -0.32065,1.22641 -0.48097,2.17286 -0.48095,2.83936 -2e-5,1.06689 0.34666,1.60034 1.04004,1.60034 0.42723,0 0.8207,-0.26001 1.18042,-0.78003 0.35968,-0.52002 0.63291,-1.05997 0.8197,-1.61987 0.18675,-0.55989 0.38674,-1.23982 0.59997,-2.0398 0.0537,-0.21402 0.094,-0.37434 0.12085,-0.48095 0.13263,-0.48014 0.35928,-0.72021 0.67994,-0.72022 0.39955,1e-5 0.59934,0.17335 0.59936,0.52002 -0.0529,0.32064 -0.13287,0.72755 -0.23987,1.2207 -0.10703,0.49317 -0.38718,1.24635 -0.84045,2.25953 -0.45331,1.01318 -0.9599,1.71997 -1.51978,2.12036 -0.39959,0.29297 -0.90618,0.43945 -1.51977,0.43945 -0.74627,0 -1.41949,-0.22664 -2.01966,-0.67993 -0.60019,-0.45329 -1.00689,-1.15967 -1.22009,-2.11914 -1.68051,1.86605 -3.29387,2.79907 -4.84009,2.79907 -1.46647,0 -2.64649,-0.57332 -3.54003,-1.71997 -0.89356,-1.14664 -1.34034,-2.63997 -1.34034,-4.47998 z m 2.71973,1.76025 c -1e-5,0.90658 0.17333,1.71998 0.52002,2.44019 0.34667,0.72021 0.91999,1.08032 1.71997,1.08032 0.90738,0 1.84101,-0.46 2.8009,-1.38 0.95987,-0.92 1.61315,-1.74011 1.95984,-2.46033 0.0529,-0.13346 0.43273,-1.56677 1.13953,-4.29993 0.70677,-2.73314 1.06016,-4.23318 1.06018,-4.50012 -2e-5,-0.63963 -0.22666,-1.40624 -0.67993,-2.2998 -0.45331,-0.89354 -1.14666,-1.34032 -2.08008,-1.34034 -1.14666,2e-5 -2.27988,0.81341 -3.39966,2.44019 -0.85369,1.22641 -1.5739,2.99297 -2.16064,5.29968 -0.58676,2.30673 -0.88014,3.98011 -0.88013,5.02014 z"
         style="fill:#000000;stroke:#000000;stroke-opacity:1;fill-opacity:1"
         id="path4165" />
      <path
         d="m 372.02542,421.38733 c 0,-0.16032 0.14648,-0.85368 0.43945,-2.08008 l 5.31983,-21.24023 c 0.16031,-0.61359 0.24047,-1.06687 0.24048,-1.35987 -10e-6,-0.4264 -0.23337,-0.65976 -0.70008,-0.70007 -0.46672,-0.0403 -0.94015,-0.0671 -1.42028,-0.0806 -0.48015,-0.0134 -0.72023,-0.19304 -0.72022,-0.53894 -10e-6,-0.32061 0.19348,-0.53423 0.58045,-0.64087 0.38695,-0.10658 1.15376,-0.19976 2.30041,-0.27954 0.66649,-0.0537 1.21296,-0.0936 1.6394,-0.11963 0.37353,-0.0537 0.64005,-0.0805 0.79957,-0.0806 0.42723,3e-5 0.64085,0.17337 0.64086,0.52002 -10e-6,0.16034 -0.17335,0.94037 -0.52002,2.34009 -0.34669,1.39976 -0.78675,3.13295 -1.32019,5.19958 -0.53345,2.06667 -0.92021,3.63344 -1.16027,4.70032 1.62678,-1.78628 3.40005,-2.67943 5.31982,-2.67945 l 0.0403,0 c 1.11978,2e-5 2.0998,0.31985 2.94007,0.95948 0.84023,0.63966 1.26035,1.70615 1.26037,3.19946 -2e-5,1.33383 -0.52675,3.50729 -1.5802,6.52039 -1.05348,3.0131 -1.58021,4.81303 -1.5802,5.39978 -10e-6,0.74707 0.30679,1.1206 0.92041,1.1206 1.49331,0 2.67983,-1.56006 3.55957,-4.68017 0.10659,-0.42643 0.25328,-0.70638 0.44007,-0.83985 0.18674,-0.13346 0.38673,-0.16011 0.59997,-0.0799 0.2132,0.0802 0.3198,0.23987 0.31983,0.47912 -3e-5,0.16033 -0.0999,0.53386 -0.29969,1.12061 -0.19981,0.58675 -0.48647,1.26017 -0.85998,2.02026 -0.37356,0.76009 -0.91372,1.43331 -1.62049,2.01965 -0.7068,0.58635 -1.4732,0.87952 -2.29919,0.87952 -0.88055,0 -1.60076,-0.29989 -2.16064,-0.89966 -0.55991,-0.59977 -0.83986,-1.36637 -0.83985,-2.2998 -10e-6,-0.53304 0.49336,-2.21964 1.4801,-5.05982 0.98672,-2.84016 1.48009,-4.9536 1.48011,-6.34033 -2e-5,-1.73338 -0.62665,-2.60008 -1.87989,-2.6001 -0.85369,2e-5 -1.66708,0.23338 -2.44018,0.70008 -0.77312,0.46673 -1.41318,1.05348 -1.92017,1.76025 -0.50701,0.7068 -0.89376,1.29355 -1.16028,1.76025 -0.26652,0.46673 -0.46652,0.86 -0.59997,1.17981 l -2.44019,9.72046 c -0.31983,1.38591 -0.89315,2.07886 -1.71997,2.07886 -0.29297,0 -0.54606,-0.0999 -0.75927,-0.29968 -0.21322,-0.19979 -0.31983,-0.4596 -0.31983,-0.77942 z"
         style="fill:#000000;stroke:#000000;stroke-opacity:1;fill-opacity:1"
         id="path4167" />
      <path
         d="m 394.01395,415.38757 c -1e-5,-3.22671 1.05997,-5.8734 3.17993,-7.94006 2.11994,-2.06663 4.37987,-3.09996 6.77978,-3.09998 1.14663,2e-5 2.1,0.31334 2.86011,0.93995 0.76007,0.62664 1.14012,1.44654 1.14014,2.45971 -2e-5,0.3467 -0.0533,0.70009 -0.15991,1.06018 -0.10663,0.36012 -0.29991,0.78676 -0.57984,1.27991 -0.27996,0.49318 -0.78004,0.95318 -1.50024,1.38001 -0.72023,0.42684 -1.60036,0.74687 -2.64038,0.96008 -1.38673,0.26612 -3.26662,0.39918 -5.63965,0.39917 -0.4533,1.97348 -0.67994,3.4135 -0.67993,4.32007 -10e-6,1.20036 0.24657,2.2406 0.73974,3.12072 0.49316,0.88013 1.27319,1.32019 2.34009,1.32019 1.09293,0 2.27273,-0.3068 3.53943,-0.92041 1.26667,-0.6136 2.36672,-1.4803 3.30017,-2.60009 0.40037,-0.507 0.70718,-0.7605 0.92041,-0.7605 0.13345,0 0.26019,0.0535 0.38025,0.16052 0.12002,0.10702 0.18003,0.24028 0.18005,0.39978 -2e-5,0.34668 -0.3467,0.8667 -1.04004,1.56006 -0.69337,0.69336 -1.7267,1.37329 -3.09997,2.03979 -1.37331,0.66651 -2.79359,0.99976 -4.26087,0.99976 -1.7334,0 -3.12663,-0.64656 -4.17968,-1.9397 -1.05307,-1.29313 -1.5796,-3.00618 -1.57959,-5.13916 z m 3.6792,-3.48022 c 5.86668,10e-6 8.80003,-1.40014 8.80004,-4.20044 -1e-5,-0.7202 -0.23317,-1.30695 -0.69946,-1.76025 -0.46632,-0.45328 -1.07301,-0.67992 -1.82007,-0.67994 -0.4004,2e-5 -0.84718,0.0867 -1.34033,0.26001 -0.49318,0.17336 -1.05978,0.46673 -1.69983,0.88013 -0.64006,0.41343 -1.25347,1.10007 -1.84021,2.05994 -0.58676,0.95989 -1.05347,2.10674 -1.40014,3.44055 z"
         style="fill:#000000;stroke:#000000;stroke-opacity:1;fill-opacity:1"
         id="path4169" />
      <path
         d="m 412.21097,416.26648 c -10e-6,-2.93293 0.9733,-5.65266 2.91992,-8.15918 1.94661,-2.50649 4.02668,-3.75975 6.24023,-3.75977 1.52017,2e-5 2.64037,0.78656 3.3606,2.35962 0.2132,-0.93341 0.53302,-2.22003 0.95947,-3.85986 0.42642,-1.63979 0.77961,-3.01979 1.05957,-4.14001 0.27993,-1.12018 0.41991,-1.78689 0.41992,-2.00013 -1e-5,-0.48011 -0.47995,-0.7269 -1.43981,-0.74035 -0.9599,-0.0134 -1.43984,-0.20648 -1.43982,-0.57923 -2e-5,-0.42722 0.41339,-0.68071 1.24023,-0.76049 2.71971,-0.24005 4.093,-0.36008 4.11987,-0.36011 0.42641,3e-5 0.63963,0.18679 0.63965,0.5603 -2e-5,0.21324 -0.0533,0.47976 -0.15991,0.79956 l -5.31982,21.15967 c -0.37356,1.46729 -0.56032,2.52075 -0.56031,3.1604 -1e-5,1.06689 0.34667,1.60034 1.04004,1.60034 0.40037,0 0.77391,-0.22664 1.12061,-0.67993 0.34666,-0.45329 0.59995,-0.90657 0.75989,-1.35986 0.15989,-0.45329 0.33994,-1.04675 0.54016,-1.7804 0.20017,-0.73364 0.31329,-1.15376 0.33935,-1.26038 0.10659,-0.37352 0.33323,-0.56029 0.67993,-0.5603 0.37352,1e-5 0.56028,0.17335 0.56031,0.52002 -3e-5,0.13347 -0.0265,0.30681 -0.0793,0.52002 -0.45331,1.76026 -0.96682,3.12032 -1.54053,4.0802 -0.57375,0.95988 -1.40708,1.43982 -2.5,1.43982 -0.74627,0 -1.41949,-0.22664 -2.01965,-0.67993 -0.60019,-0.45329 -1.00689,-1.15967 -1.22009,-2.11914 -1.68052,1.86605 -3.29388,2.79907 -4.84009,2.79907 -1.44044,0 -2.61394,-0.57983 -3.52051,-1.7395 -0.90658,-1.15967 -1.35987,-2.64648 -1.35986,-4.46045 z m 2.71972,1.76025 c 0,0.90658 0.17334,1.71998 0.52002,2.44019 0.34668,0.72021 0.92,1.08032 1.71997,1.08032 0.90738,0 1.84102,-0.46 2.80091,-1.38 0.95986,-0.92 1.61314,-1.74011 1.95984,-2.46033 0.0529,-0.13346 0.43272,-1.56677 1.13952,-4.29993 0.70677,-2.73314 1.06017,-4.23318 1.06018,-4.50012 -10e-6,-0.63963 -0.22666,-1.40624 -0.67993,-2.2998 -0.4533,-0.89354 -1.14666,-1.34032 -2.08008,-1.34034 -1.17351,2e-5 -2.30673,0.81341 -3.39965,2.44019 -0.85369,1.22641 -1.57391,2.99297 -2.16065,5.29968 -0.58676,2.30673 -0.88013,3.98011 -0.88013,5.02014 z"
         style="fill:#000000;stroke:#000000;stroke-opacity:1;fill-opacity:1"
         id="path4171" />
      <path
         d="m 433.39993,421.0675 c 0,-0.0806 0.0932,-0.49397 0.27954,-1.24023 l 2.84058,-11.28052 c 0.16031,-0.61278 0.24047,-1.05264 0.24048,-1.31958 -1e-5,-0.40037 -0.24008,-0.63393 -0.72022,-0.70068 -0.48015,-0.0667 -0.96029,-0.11331 -1.44043,-0.13977 -0.48014,-0.0264 -0.72022,-0.18655 -0.72021,-0.48035 -10e-6,-0.39956 0.27994,-0.65265 0.83984,-0.75928 0.26692,-0.0537 1.16048,-0.12042 2.68067,-0.20019 0.37352,-0.69334 0.88011,-1.04002 1.51977,-1.04004 0.40038,2e-5 0.68704,0.11334 0.85999,0.33997 0.17292,0.22666 0.25939,0.44659 0.2594,0.65979 -10e-6,0.18719 -0.0932,0.69378 -0.27954,1.51977 1.33381,-1.38589 2.74738,-2.07884 4.24072,-2.07886 0.98631,2e-5 1.88617,0.20652 2.69958,0.61951 0.81338,0.41302 1.22008,1.05979 1.2201,1.94031 -2e-5,0.53305 -0.18679,1.01299 -0.56031,1.43982 -0.37355,0.42685 -0.84026,0.64027 -1.40014,0.64026 -0.37356,10e-6 -0.69358,-0.12003 -0.96009,-0.36011 -0.26653,-0.24006 -0.39979,-0.54686 -0.39978,-0.92041 -10e-6,-0.82681 0.49315,-1.45344 1.4795,-1.87988 -0.69338,-0.37352 -1.39976,-0.56029 -2.11914,-0.56031 -1.73342,2e-5 -3.26703,1.22683 -4.60083,3.68042 -0.26613,0.48016 -0.48585,1.05348 -0.65918,1.71997 -0.17335,0.66652 -0.98024,3.89324 -2.42066,9.68018 -0.13347,0.58675 -0.26002,0.94666 -0.37964,1.07971 -0.11963,0.13306 -0.36622,0.19959 -0.73974,0.19959 l -0.83985,0 c -0.61361,0 -0.92041,-0.18636 -0.92041,-0.55909 z"
         style="fill:#000000;stroke:#000000;stroke-opacity:1;fill-opacity:1"
         id="path4173" />
      <path
         d="m 449.595,415.90637 c 0,-2.90608 1.06669,-5.55907 3.20007,-7.95898 2.13338,-2.39989 4.45332,-3.59984 6.95984,-3.59986 1.76024,2e-5 3.17361,0.61322 4.24012,1.8396 1.06646,1.22642 1.59971,2.81292 1.59973,4.75953 -2e-5,2.9069 -1.06671,5.55359 -3.20008,7.94006 -2.13339,2.38647 -4.45334,3.57971 -6.95984,3.57971 -1.7334,0 -3.14006,-0.6132 -4.21997,-1.8396 -1.07992,-1.2264 -1.61987,-2.79988 -1.61987,-4.72046 z m 2.83936,1.56006 c -1e-5,1.28011 0.27343,2.28028 0.82031,3.00049 0.54687,0.72021 1.28702,1.08032 2.22046,1.08032 1.41356,0 2.74697,-0.73323 4.00024,-2.19971 0.95946,-1.14664 1.75251,-2.75349 2.37915,-4.82055 0.62661,-2.06705 0.93993,-3.78051 0.93994,-5.14038 -1e-5,-1.2801 -0.27996,-2.28677 -0.83984,-3.02002 -0.55991,-0.73322 -1.30657,-1.09984 -2.23999,-1.09986 -1.35988,2e-5 -2.67986,0.74668 -3.95996,2.23999 -0.95948,1.11981 -1.75274,2.72646 -2.37976,4.81995 -0.62704,2.09351 -0.94056,3.80677 -0.94055,5.13977 z"
         style="fill:#000000;stroke:#000000;stroke-opacity:1;fill-opacity:1"
         id="path4175" />
      <path
         d="m 470.66556,421.38733 c -1e-5,-0.29378 0.0801,-0.70719 0.24048,-1.24024 l 3.03955,-12.1997 c -10e-6,-0.0537 0.0199,-0.16722 0.0598,-0.34058 0.0399,-0.17332 0.0598,-0.29987 0.0598,-0.37964 -1e-5,-0.40037 -0.23988,-0.62722 -0.71961,-0.68054 -0.47974,-0.0533 -0.95968,-0.0932 -1.43982,-0.11963 -0.48015,-0.0264 -0.72022,-0.18655 -0.72021,-0.48034 -1e-5,-0.37271 0.2067,-0.61258 0.62011,-0.71961 0.41341,-0.107 1.39323,-0.20038 2.93946,-0.28015 0.24006,-0.13345 0.60017,-0.20018 1.08032,-0.2002 l 0.52002,0 c 0.61359,2e-5 0.9204,0.20022 0.92041,0.60059 -10e-6,0.10662 -0.12005,0.63966 -0.36011,1.59912 1.62678,-1.73257 3.38662,-2.59886 5.27954,-2.59888 l 0.0403,0 c 1.09291,2e-5 2.05951,0.31985 2.89978,0.95948 0.84023,0.63966 1.26035,1.71958 1.26037,3.23974 -2e-5,1.33384 -0.52675,3.5073 -1.5802,6.52039 -1.05348,3.0131 -1.58022,4.81303 -1.5802,5.39978 -2e-5,0.72021 0.30679,1.08032 0.92041,1.08032 0.79995,0 1.49331,-0.43335 2.08008,-1.30005 0.58673,-0.86669 1.0333,-1.77998 1.33972,-2.73987 0.30638,-0.95987 0.49986,-1.46666 0.58045,-1.52038 0.10658,-0.0797 0.23964,-0.11962 0.39917,-0.11963 0.34665,1e-5 0.51999,0.17335 0.52002,0.52002 -3e-5,0.18637 -0.0999,0.57963 -0.29969,1.17981 -0.19981,0.60018 -0.48647,1.28011 -0.85998,2.03979 -0.37356,0.75969 -0.90701,1.42619 -1.60034,1.99952 -0.69338,0.57332 -1.45307,0.85998 -2.27906,0.85998 -0.9074,0 -1.64105,-0.3066 -2.20092,-0.9198 -0.55992,-0.6132 -0.83986,-1.38651 -0.83985,-2.31995 -1e-5,-0.45328 0.49335,-2.12646 1.4801,-5.01953 0.98672,-2.89305 1.48009,-5.00649 1.48011,-6.34033 -2e-5,-1.73338 -0.6535,-2.60008 -1.96045,-2.6001 -0.77313,2e-5 -1.51959,0.21344 -2.23938,0.64026 -0.71982,0.42686 -1.32651,0.94016 -1.82007,1.53992 -0.49358,0.59979 -0.89357,1.15968 -1.19995,1.67969 -0.30641,0.52003 -0.52634,0.95338 -0.65979,1.30005 -0.0537,0.16033 -0.90699,3.53394 -2.55982,10.12085 -0.21403,1.30615 -0.78736,1.95922 -1.71997,1.95922 -0.32064,0 -0.58757,-0.0999 -0.80078,-0.29968 -0.21322,-0.19979 -0.31983,-0.47302 -0.31982,-0.8197 z"
         style="fill:#000000;stroke:#000000;stroke-opacity:1;fill-opacity:1"
         id="path4177" />
      <path
         d="m 146.96317,455.5072 c -1e-5,-0.45327 0.29337,-0.67991 0.88012,-0.67993 0.13265,2e-5 0.33244,-0.007 0.59937,-0.0201 0.26692,-0.0134 0.46711,-0.0201 0.60058,-0.0201 0.26611,10e-6 0.65918,0.007 1.1792,0.0201 0.52001,0.0134 0.91349,0.0202 1.18042,0.0201 l 1.44043,-5.80078 c 0.0797,-0.3198 0.13285,-0.51308 0.1593,-0.57983 0.0264,-0.0667 0.0797,-0.17332 0.15992,-0.31983 0.0802,-0.14646 0.18024,-0.22642 0.30029,-0.23987 0.12002,-0.0134 0.28665,-0.0201 0.49988,-0.0201 l 0.72021,0 c 0.58674,3e-5 0.88012,0.17337 0.88013,0.52002 -1e-5,0.45331 -0.52003,2.60012 -1.56006,6.44043 l 3.28003,0 c 0.55988,2e-5 0.83983,0.17336 0.83984,0.52002 -1e-5,0.29299 -0.10662,0.48626 -0.31982,0.57983 -0.21323,0.0936 -0.58677,0.1404 -1.12061,0.14038 l -0.63964,0 c -0.26694,2e-5 -0.66042,-0.007 -1.18042,-0.0201 -0.52004,-0.0134 -0.9131,-0.0201 -1.1792,-0.0201 -0.0537,0.15952 -0.12046,0.42604 -0.2002,0.79956 -0.0798,0.37355 -0.14649,0.64048 -0.20019,0.80078 l -2.39991,9.71924 c -0.29379,1.2264 -0.44068,2.0931 -0.44067,2.6001 -1e-5,1.06689 0.37353,1.60034 1.1206,1.60034 1.76025,0 3.32031,-1.70695 4.68018,-5.12085 0.13345,-0.34667 0.37352,-0.52001 0.72022,-0.52002 0.34666,1e-5 0.52,0.1469 0.52001,0.44068 -1e-5,0.72022 -0.59998,1.92017 -1.79992,3.59985 -1.19996,1.67969 -2.61333,2.51953 -4.24011,2.51953 -1.01401,0 -1.83432,-0.33997 -2.46094,-1.0199 -0.62663,-0.67993 -0.93995,-1.53991 -0.93994,-2.57995 -1e-5,-0.55989 0.0936,-1.14624 0.28076,-1.75904 l 2.76001,-11.08032 -3.23975,0 c -0.58675,2e-5 -0.88013,-0.17332 -0.88012,-0.52002 z"
         style="fill:#000000;stroke:#000000;stroke-opacity:1;fill-opacity:1"
         id="path4179" />
      <path
         d="m 162.60403,455.90637 c 0,-0.18634 0.0334,-0.32611 0.1001,-0.41931 0.0667,-0.0932 0.19999,-0.16641 0.39978,-0.21973 0.19978,-0.0533 0.39306,-0.0934 0.57984,-0.12024 0.18676,-0.0268 0.49356,-0.0535 0.92041,-0.0799 0.42683,-0.0264 0.81359,-0.0665 1.16027,-0.12024 0.0529,2e-5 0.20609,-0.0334 0.4596,-0.1001 0.25349,-0.0667 0.63333,-0.10008 1.13953,-0.1001 l 0.44067,0 c 0.58674,2e-5 0.88011,0.18679 0.88013,0.56031 -0.26694,1.91977 -0.64048,3.03956 -1.12061,3.35937 -1.49334,4.96013 -2.24,8.12053 -2.23999,9.4812 -1e-5,1.25326 0.27994,2.12647 0.83984,2.61963 0.55989,0.49317 1.1735,0.73975 1.84083,0.73975 0.63963,0 1.23289,-0.27995 1.77978,-0.83985 0.54686,-0.55989 0.92691,-1.07319 1.14014,-1.53991 0.2132,-0.46671 0.34626,-0.82011 0.39917,-1.06018 0.0268,-0.10661 0.0537,-0.41992 0.0806,-0.93994 0.0268,-0.52002 0.107,-1.05998 0.24048,-1.61988 0.2661,-1.17349 0.99933,-4.13369 2.19971,-8.88061 0.31981,-1.22639 0.89313,-1.83959 1.71997,-1.8396 0.3198,10e-6 0.58632,0.10662 0.79956,0.31982 0.2132,0.21323 0.3198,0.47975 0.31982,0.79956 -2e-5,0.24009 -0.4533,2.11346 -1.35986,5.62012 -0.90659,3.50668 -1.35988,5.75358 -1.35986,6.74072 -2e-5,1.14665 0.24005,1.97327 0.72021,2.47986 0.48013,0.50659 1.0799,0.75989 1.79932,0.75989 0.61359,0 1.18711,-0.18657 1.72058,-0.55969 0.53343,-0.37313 0.9802,-0.81319 1.34033,-1.32019 0.36009,-0.507 0.70677,-1.17371 1.04004,-2.00013 0.33323,-0.82641 0.57981,-1.51977 0.73975,-2.08008 0.15988,-0.56029 0.34645,-1.25345 0.55969,-2.07946 0.37351,-1.49332 0.56028,-2.53336 0.5603,-3.12012 -2e-5,-1.04003 -0.26003,-1.9468 -0.78003,-2.72034 -0.52004,-0.7735 -0.78005,-1.26687 -0.78003,-1.4801 -2e-5,-0.39956 0.19326,-0.79934 0.57984,-1.19934 0.38653,-0.39997 0.81988,-0.59996 1.30005,-0.59998 0.4264,2e-5 0.81296,0.21324 1.15966,0.63965 0.34666,0.42645 0.52,1.14626 0.52002,2.15943 -2e-5,0.98715 -0.27326,2.60743 -0.8197,4.86084 -0.54649,2.25342 -1.07323,4.01978 -1.5802,5.29907 -1.35989,3.49365 -3.25319,5.24048 -5.67993,5.24048 -2.2396,0 -3.74635,-0.83985 -4.52026,-2.51953 -0.55991,0.82601 -1.11981,1.44572 -1.67969,1.85913 -0.55991,0.41341 -1.30657,0.62011 -2.23999,0.62011 -1.33302,0 -2.53297,-0.38004 -3.59985,-1.14013 -1.06691,-0.76009 -1.60035,-2.01986 -1.60035,-3.7793 0,-0.77392 0.21342,-2.02087 0.64026,-3.74084 0.42683,-1.71997 0.86018,-3.28653 1.30005,-4.69971 0.43985,-1.41315 0.65978,-2.13317 0.65979,-2.16004 -1e-5,-0.3198 -0.4533,-0.49314 -1.35986,-0.52002 -0.90658,-0.0268 -1.35987,-0.2136 -1.35987,-0.5603 z"
         style="fill:#000000;stroke:#000000;stroke-opacity:1;fill-opacity:1"
         id="path4181" />
      <path
         d="m 187.49051,465.38757 c -1e-5,-3.22671 1.05997,-5.8734 3.17993,-7.94006 2.11995,-2.06663 4.37987,-3.09996 6.77979,-3.09998 1.14663,2e-5 2.1,0.31334 2.8601,0.93995 0.76008,0.62664 1.14012,1.44654 1.14014,2.45971 -2e-5,0.3467 -0.0533,0.70009 -0.15991,1.06018 -0.10663,0.36012 -0.29991,0.78676 -0.57984,1.27991 -0.27996,0.49318 -0.78004,0.95318 -1.50024,1.38001 -0.72023,0.42684 -1.60036,0.74687 -2.64038,0.96008 -1.38673,0.26612 -3.26661,0.39918 -5.63965,0.39917 -0.45329,1.97348 -0.67994,3.4135 -0.67993,4.32007 -1e-5,1.20036 0.24657,2.2406 0.73974,3.12072 0.49316,0.88013 1.27319,1.32019 2.34009,1.32019 1.09293,0 2.27274,-0.3068 3.53943,-0.92041 1.26667,-0.6136 2.36673,-1.4803 3.30017,-2.60009 0.40038,-0.507 0.70718,-0.7605 0.92041,-0.7605 0.13345,0 0.2602,0.0535 0.38025,0.16052 0.12002,0.10702 0.18004,0.24028 0.18006,0.39978 -2e-5,0.34668 -0.3467,0.8667 -1.04004,1.56006 -0.69338,0.69336 -1.7267,1.37329 -3.09998,2.03979 -1.3733,0.66651 -2.79359,0.99976 -4.26086,0.99976 -1.73341,0 -3.12664,-0.64656 -4.17969,-1.9397 -1.05307,-1.29313 -1.5796,-3.00618 -1.57959,-5.13916 z m 3.6792,-3.48022 c 5.86668,10e-6 8.80003,-1.40014 8.80005,-4.20044 -2e-5,-0.7202 -0.23317,-1.30695 -0.69947,-1.76025 -0.46632,-0.45328 -1.07301,-0.67992 -1.82006,-0.67994 -0.40041,2e-5 -0.84719,0.0867 -1.34034,0.26001 -0.49317,0.17336 -1.05978,0.46673 -1.69983,0.88013 -0.64006,0.41343 -1.25346,1.10007 -1.84021,2.05994 -0.58676,0.95989 -1.05347,2.10674 -1.40014,3.44055 z"
         style="fill:#000000;stroke:#000000;stroke-opacity:1;fill-opacity:1"
         id="path4183" />
      <path
         d="m 205.12723,468.86658 c -1e-5,-0.31982 0.13346,-1.05306 0.40039,-2.19971 l 4.63989,-18.51929 c 0.18717,-0.74704 0.28075,-1.22719 0.28076,-1.44043 -1e-5,-0.48011 -0.46672,-0.7269 -1.40014,-0.74035 -0.93344,-0.0134 -1.42701,-0.1666 -1.48072,-0.4596 -0.026,-0.24004 0.0409,-0.42681 0.20081,-0.5603 0.1599,-0.13344 0.28645,-0.20688 0.37964,-0.22034 0.0932,-0.0134 0.24637,-0.0331 0.45959,-0.0592 0.40039,-0.0268 0.95377,-0.0736 1.66016,-0.14038 0.70637,-0.0667 1.30634,-0.12672 1.79993,-0.18006 0.49356,-0.0533 0.76679,-0.0799 0.8197,-0.0799 0.45327,3e-5 0.67992,0.18679 0.67993,0.5603 -1e-5,0.10664 -0.0267,0.2399 -0.08,0.39978 -0.0533,0.15994 -0.08,0.25332 -0.0799,0.28015 l -5.52002,22.23999 c -0.23927,1.04004 -0.3589,1.78671 -0.35889,2.23999 -1e-5,1.04004 0.34627,1.56006 1.03882,1.56006 0.21402,0 0.42764,-0.0667 0.64087,-0.20019 0.21321,-0.13347 0.40648,-0.34017 0.57983,-0.62012 0.17333,-0.27995 0.32674,-0.54667 0.46021,-0.80017 0.13345,-0.2535 0.26,-0.57353 0.37964,-0.96009 0.11962,-0.38655 0.2128,-0.69315 0.27954,-0.9198 0.0667,-0.22663 0.14688,-0.52001 0.24048,-0.88012 0.0936,-0.3601 0.14037,-0.55318 0.14038,-0.57923 0.13345,-0.45409 0.36009,-0.68114 0.67993,-0.68115 0.37352,1e-5 0.56029,0.17335 0.5603,0.52002 -1e-5,0.58676 -0.28036,1.64022 -0.84106,3.1604 -0.77313,1.91976 -1.85304,2.87964 -3.23975,2.87964 -0.98633,0 -1.7863,-0.34648 -2.3999,-1.03943 -0.61361,-0.69295 -0.92042,-1.54642 -0.92041,-2.56042 z"
         style="fill:#000000;stroke:#000000;stroke-opacity:1;fill-opacity:1"
         id="path4185" />
      <path
         d="m 217.60403,455.90637 c 0,-0.31981 0.14669,-0.52631 0.44007,-0.6195 0.29337,-0.0932 1.01338,-0.17963 2.16003,-0.2594 0.79996,-0.0537 1.46646,-0.107 1.99951,-0.15992 l 0.24048,-0.0403 c 0.18635,-0.0268 0.34626,-0.0403 0.47974,-0.0403 0.50699,10e-6 0.76048,0.17335 0.7605,0.52002 -2e-5,0.21323 -0.17336,0.97332 -0.52002,2.28027 -0.18719,0.58677 -0.40081,0.94647 -0.64087,1.0791 -1.51938,4.98699 -2.27906,8.18726 -2.27905,9.60083 -1e-5,1.2264 0.26,2.07967 0.78002,2.55982 0.52001,0.48014 1.1267,0.72021 1.82007,0.72021 1.01317,0 1.96634,-0.50008 2.8595,-1.50024 0.89313,-1.00016 1.58649,-2.17346 2.08008,-3.5199 0.49355,-1.34643 0.8736,-2.57974 1.14013,-3.69995 0.26651,-1.12019 0.39977,-1.92036 0.39979,-2.40051 -2e-5,-0.79996 -0.13328,-1.47318 -0.39979,-2.01966 -0.26653,-0.54645 -0.53326,-0.9798 -0.80017,-1.30005 -0.26694,-0.32021 -0.4004,-0.62681 -0.40039,-0.9198 -1e-5,-0.50698 0.20669,-0.94033 0.62012,-1.30005 0.41339,-0.35968 0.83352,-0.53953 1.26038,-0.53955 0.42682,2e-5 0.80686,0.20652 1.14013,0.61951 0.33324,0.41302 0.49986,1.09967 0.49988,2.05994 -2e-5,0.4533 -0.08,1.21319 -0.23987,2.27966 -0.15993,1.0665 -0.46002,2.36655 -0.90027,3.90015 -0.44028,1.53361 -0.9603,2.98035 -1.56005,4.34021 -0.59979,1.35986 -1.4197,2.51973 -2.45972,3.47961 -1.04005,0.95988 -2.17327,1.43982 -3.39966,1.43982 -1.28012,0 -2.42026,-0.36662 -3.42041,-1.09985 -1.00017,-0.73324 -1.50025,-1.96655 -1.50024,-3.69995 -1e-5,-0.82682 0.21992,-2.08679 0.65979,-3.77991 0.43985,-1.69311 0.8732,-3.23302 1.30005,-4.61975 0.42683,-1.38671 0.64025,-2.11994 0.64025,-2.19971 0,-0.40037 -0.46001,-0.60057 -1.38,-0.60059 -0.92001,2e-5 -1.38001,-0.18675 -1.38001,-0.5603 z"
         style="fill:#000000;stroke:#000000;stroke-opacity:1;fill-opacity:1"
         id="path4187" />
      <path
         d="m 234.52176,465.38757 c -1e-5,-3.22671 1.05997,-5.8734 3.17993,-7.94006 2.11995,-2.06663 4.37987,-3.09996 6.77979,-3.09998 1.14663,2e-5 2.1,0.31334 2.8601,0.93995 0.76008,0.62664 1.14012,1.44654 1.14014,2.45971 -2e-5,0.3467 -0.0533,0.70009 -0.15991,1.06018 -0.10663,0.36012 -0.29991,0.78676 -0.57984,1.27991 -0.27996,0.49318 -0.78004,0.95318 -1.50024,1.38001 -0.72023,0.42684 -1.60036,0.74687 -2.64038,0.96008 -1.38673,0.26612 -3.26661,0.39918 -5.63965,0.39917 -0.45329,1.97348 -0.67994,3.4135 -0.67993,4.32007 -1e-5,1.20036 0.24657,2.2406 0.73974,3.12072 0.49316,0.88013 1.27319,1.32019 2.34009,1.32019 1.09293,0 2.27274,-0.3068 3.53943,-0.92041 1.26667,-0.6136 2.36673,-1.4803 3.30017,-2.60009 0.40038,-0.507 0.70718,-0.7605 0.92041,-0.7605 0.13345,0 0.2602,0.0535 0.38025,0.16052 0.12002,0.10702 0.18004,0.24028 0.18006,0.39978 -2e-5,0.34668 -0.3467,0.8667 -1.04004,1.56006 -0.69338,0.69336 -1.7267,1.37329 -3.09998,2.03979 -1.3733,0.66651 -2.79359,0.99976 -4.26086,0.99976 -1.73341,0 -3.12664,-0.64656 -4.17969,-1.9397 -1.05307,-1.29313 -1.5796,-3.00618 -1.57959,-5.13916 z m 3.6792,-3.48022 c 5.86668,10e-6 8.80003,-1.40014 8.80005,-4.20044 -2e-5,-0.7202 -0.23317,-1.30695 -0.69947,-1.76025 -0.46632,-0.45328 -1.07301,-0.67992 -1.82006,-0.67994 -0.40041,2e-5 -0.84719,0.0867 -1.34034,0.26001 -0.49317,0.17336 -1.05978,0.46673 -1.69983,0.88013 -0.64006,0.41343 -1.25346,1.10007 -1.84021,2.05994 -0.58676,0.95989 -1.05347,2.10674 -1.40014,3.44055 z"
         style="fill:#000000;stroke:#000000;stroke-opacity:1;fill-opacity:1"
         id="path4189" />
      <path
         d="m 261.73611,477.58728 c 1e-5,-0.64047 0.2,-1.16069 0.59998,-1.56067 0.39998,-0.39999 0.8665,-0.59998 1.39954,-0.59997 0.42643,-1e-5 0.75317,0.12674 0.98022,0.38024 0.22705,0.2535 0.34057,0.56702 0.34058,0.94056 -10e-6,1.01317 -0.58676,1.6398 -1.76026,1.87988 0.53304,0.48014 1.05306,0.72021 1.56006,0.72021 0.37272,0 0.69926,-0.11353 0.97962,-0.34057 0.28035,-0.22706 0.52713,-0.6071 0.74035,-1.14014 0.21321,-0.53304 0.36641,-0.97962 0.4596,-1.33972 0.0932,-0.36011 0.23335,-0.92672 0.42053,-1.69983 0.31982,-1.38672 0.79304,-3.64685 1.41968,-6.7804 0.62662,-3.13353 1.16658,-5.91368 1.61987,-8.34045 l 0.72021,-3.6792 c -0.18718,2e-5 -0.46733,0.007 -0.84045,0.0201 -0.37313,0.0134 -0.65288,0.0202 -0.83923,0.0201 l -0.52002,0 c -0.82683,2e-5 -1.24024,-0.2136 -1.24024,-0.64086 0,-0.39956 0.37313,-0.59935 1.11939,-0.59937 l 2.55981,0 c 0.77392,-3.97377 1.34724,-6.45383 1.71997,-7.44019 0.29378,-0.79994 0.65388,-1.42656 1.08033,-1.87988 0.98713,-1.11976 2.08047,-1.67966 3.28003,-1.67969 0.88051,3e-5 1.6406,0.24661 2.28027,0.73975 0.63963,0.49319 0.95945,1.12633 0.95947,1.89941 -2e-5,0.58678 -0.18658,1.09358 -0.55969,1.52039 -0.37315,0.42686 -0.83966,0.64028 -1.39954,0.64026 -0.4004,2e-5 -0.72714,-0.12001 -0.98022,-0.36011 -0.25311,-0.24005 -0.37966,-0.54685 -0.37964,-0.92041 -2e-5,-0.42641 0.15318,-0.8329 0.45959,-1.21948 0.30639,-0.38653 0.73953,-0.62009 1.29944,-0.70068 -0.53305,-0.45326 -1.03965,-0.67991 -1.51977,-0.67994 -0.31984,3e-5 -0.59308,0.0601 -0.8197,0.18006 -0.22666,0.12006 -0.43337,0.33348 -0.62012,0.64026 -0.18678,0.30683 -0.34018,0.62685 -0.46021,0.96008 -0.12005,0.33328 -0.25331,0.82664 -0.39978,1.4801 -0.14649,0.65351 -0.27304,1.2602 -0.37964,1.82007 -0.10662,0.55992 -0.2533,1.33323 -0.44006,2.31995 -0.18678,0.98675 -0.36032,1.8801 -0.52063,2.68005 l 3.20068,0 c 0.58674,2e-5 0.88012,0.17336 0.88013,0.52002 -10e-6,0.48016 -0.41343,0.72023 -1.24023,0.72021 l -0.0806,0 c -0.0798,2e-5 -0.20631,-0.007 -0.37964,-0.0201 -0.17335,-0.0134 -0.2999,-0.0201 -0.37964,-0.0201 l -2.23999,0 c -0.13347,0.74627 -0.58696,3.11952 -1.36047,7.11975 -0.77353,4.00025 -1.24004,6.33362 -1.39954,7.00012 -0.26693,1.28012 -0.54037,2.40011 -0.82031,3.35999 -0.27995,0.95988 -0.66651,2.00643 -1.15967,3.13965 -0.49317,1.13321 -1.09314,2.01313 -1.79992,2.63977 -0.7068,0.62662 -1.50045,0.93993 -2.38099,0.93994 -0.82601,-1e-5 -1.55904,-0.23316 -2.19909,-0.69946 -0.64006,-0.46632 -0.96008,-1.11288 -0.96009,-1.9397 z"
         style="fill:#000000;stroke:#000000;stroke-opacity:1;fill-opacity:1"
         id="path4191" />
      <path
         d="m 279.35941,466.26648 c -1e-5,-2.93293 0.96679,-5.65266 2.90039,-8.15918 1.93358,-2.50649 4.02017,-3.75975 6.25976,-3.75977 1.38671,2e-5 2.5069,0.78656 3.3606,2.35962 0.23924,-1.01316 0.75926,-1.51976 1.56006,-1.51977 0.3198,10e-6 0.58632,0.10662 0.79956,0.31982 0.21319,0.21323 0.3198,0.46633 0.31982,0.75928 -2e-5,0.10662 -0.0533,0.36012 -0.15991,0.7605 l -2.51953,10.08056 c -0.32066,1.22641 -0.48098,2.17286 -0.48096,2.83936 -2e-5,1.06689 0.34666,1.60034 1.04004,1.60034 0.42723,0 0.8207,-0.26001 1.18042,-0.78003 0.35968,-0.52002 0.63291,-1.05997 0.8197,-1.61987 0.18675,-0.55989 0.38674,-1.23982 0.59998,-2.0398 0.0537,-0.21402 0.094,-0.37434 0.12085,-0.48095 0.13263,-0.48014 0.35927,-0.72021 0.67993,-0.72022 0.39955,1e-5 0.59934,0.17335 0.59936,0.52002 -0.0529,0.32064 -0.13287,0.72755 -0.23986,1.2207 -0.10704,0.49317 -0.38719,1.24635 -0.84046,2.25953 -0.45331,1.01318 -0.9599,1.71997 -1.51977,2.12036 -0.3996,0.29297 -0.90619,0.43945 -1.51978,0.43945 -0.74627,0 -1.41949,-0.22664 -2.01965,-0.67993 -0.6002,-0.45329 -1.00689,-1.15967 -1.2201,-2.11914 -1.68051,1.86605 -3.29387,2.79907 -4.84008,2.79907 -1.46648,0 -2.64649,-0.57332 -3.54004,-1.71997 -0.89356,-1.14664 -1.34034,-2.63997 -1.34033,-4.47998 z m 2.71972,1.76025 c 0,0.90658 0.17333,1.71998 0.52002,2.44019 0.34667,0.72021 0.92,1.08032 1.71997,1.08032 0.90738,0 1.84101,-0.46 2.80091,-1.38 0.95986,-0.92 1.61314,-1.74011 1.95983,-2.46033 0.0529,-0.13346 0.43273,-1.56677 1.13953,-4.29993 0.70677,-2.73314 1.06017,-4.23318 1.06018,-4.50012 -10e-6,-0.63963 -0.22666,-1.40624 -0.67993,-2.2998 -0.4533,-0.89354 -1.14666,-1.34032 -2.08008,-1.34034 -1.14666,2e-5 -2.27988,0.81341 -3.39966,2.44019 -0.85368,1.22641 -1.5739,2.99297 -2.16064,5.29968 -0.58676,2.30673 -0.88013,3.98011 -0.88013,5.02014 z"
         style="fill:#000000;stroke:#000000;stroke-opacity:1;fill-opacity:1"
         id="path4193" />
      <path
         d="m 299.94656,465.90637 c 0,-2.93293 1.0734,-5.59264 3.22022,-7.97912 2.1468,-2.38646 4.46003,-3.5797 6.9397,-3.57972 1.22638,2e-5 2.24628,0.31985 3.05969,0.95948 0.81338,0.63966 1.22007,1.46648 1.22009,2.48047 -2e-5,0.82602 -0.21323,1.4325 -0.63965,1.81945 -0.42645,0.38698 -0.89316,0.58046 -1.40014,0.58045 -0.37356,10e-6 -0.68687,-0.12003 -0.93995,-0.36011 -0.2531,-0.24006 -0.37965,-0.54686 -0.37963,-0.92041 -2e-5,-0.2132 0.0399,-0.43985 0.11962,-0.67993 0.0797,-0.24006 0.27973,-0.50007 0.59998,-0.78003 0.32022,-0.27993 0.74685,-0.44676 1.27991,-0.50049 -0.53306,-1.11977 -1.49294,-1.67967 -2.87964,-1.67969 -0.42726,2e-5 -0.88747,0.0934 -1.38062,0.28015 -0.49317,0.18679 -1.07301,0.52024 -1.7395,1.00037 -0.66651,0.48016 -1.31308,1.28013 -1.9397,2.3999 -0.62663,1.11981 -1.15357,2.47967 -1.58081,4.07959 -0.48015,1.76026 -0.72022,3.22714 -0.72021,4.40064 -10e-6,1.14665 0.26,2.11996 0.78003,2.91992 0.52001,0.79997 1.31347,1.19995 2.38037,1.19995 0.96027,0 1.90042,-0.17334 2.82043,-0.52002 0.91999,-0.34668 1.71996,-0.81339 2.39991,-1.40014 0.67991,-0.58675 1.15314,-1.01339 1.41967,-1.27991 0.26651,-0.26652 0.53323,-0.57312 0.80018,-0.9198 l 0.0403,-0.0403 c 0.18634,-0.13345 0.37962,-0.12674 0.57983,0.0202 0.20018,0.14689 0.30028,0.31352 0.3003,0.49987 -2e-5,0.31983 -0.34019,0.82642 -1.02051,1.51978 -0.68036,0.69336 -1.71368,1.37329 -3.09998,2.03979 -1.38632,0.66651 -2.82614,0.99976 -4.31946,0.99976 -1.76026,0 -3.18706,-0.6132 -4.28039,-1.8396 -1.09335,-1.2264 -1.64002,-2.79988 -1.64002,-4.72046 z"
         style="fill:#000000;stroke:#000000;stroke-opacity:1;fill-opacity:1"
         id="path4195" />
      <path
         d="m 318.50613,465.38757 c 0,-3.22671 1.05998,-5.8734 3.17994,-7.94006 2.11994,-2.06663 4.37987,-3.09996 6.77978,-3.09998 1.14663,2e-5 2.1,0.31334 2.86011,0.93995 0.76007,0.62664 1.14012,1.44654 1.14013,2.45971 -1e-5,0.3467 -0.0533,0.70009 -0.15991,1.06018 -0.10662,0.36012 -0.2999,0.78676 -0.57983,1.27991 -0.27997,0.49318 -0.78005,0.95318 -1.50025,1.38001 -0.72023,0.42684 -1.60035,0.74687 -2.64038,0.96008 -1.38673,0.26612 -3.26661,0.39918 -5.63964,0.39917 -0.4533,1.97348 -0.67994,3.4135 -0.67994,4.32007 0,1.20036 0.24658,2.2406 0.73975,3.12072 0.49316,0.88013 1.27318,1.32019 2.34009,1.32019 1.09292,0 2.27273,-0.3068 3.53943,-0.92041 1.26666,-0.6136 2.36672,-1.4803 3.30017,-2.60009 0.40037,-0.507 0.70717,-0.7605 0.92041,-0.7605 0.13344,0 0.26019,0.0535 0.38025,0.16052 0.12001,0.10702 0.18003,0.24028 0.18005,0.39978 -2e-5,0.34668 -0.3467,0.8667 -1.04004,1.56006 -0.69338,0.69336 -1.7267,1.37329 -3.09997,2.03979 -1.37331,0.66651 -2.7936,0.99976 -4.26087,0.99976 -1.73341,0 -3.12663,-0.64656 -4.17969,-1.9397 -1.05306,-1.29313 -1.57959,-3.00618 -1.57959,-5.13916 z m 3.6792,-3.48022 c 5.86669,10e-6 8.80004,-1.40014 8.80005,-4.20044 -1e-5,-0.7202 -0.23317,-1.30695 -0.69946,-1.76025 -0.46633,-0.45328 -1.07301,-0.67992 -1.82007,-0.67994 -0.4004,2e-5 -0.84718,0.0867 -1.34033,0.26001 -0.49318,0.17336 -1.05979,0.46673 -1.69983,0.88013 -0.64007,0.41343 -1.25347,1.10007 -1.84021,2.05994 -0.58676,0.95989 -1.05348,2.10674 -1.40015,3.44055 z"
         style="fill:#000000;stroke:#000000;stroke-opacity:1;fill-opacity:1"
         id="path4197" />
      <path
         d="m 335.42386,468.58704 c 0,-0.82682 0.21321,-1.44694 0.63965,-1.86036 0.42643,-0.4134 0.87971,-0.62011 1.35986,-0.62011 0.40039,0 0.72713,0.12675 0.98022,0.38025 0.25309,0.2535 0.37964,0.56702 0.37964,0.94055 0,0.39958 -0.15991,0.81279 -0.47973,1.23962 -0.31983,0.42684 -0.83985,0.65369 -1.56006,0.68054 0.58675,1.49333 1.8933,2.23999 3.91968,2.23999 1.65363,0 2.92703,-0.48685 3.82019,-1.46057 0.89313,-0.97371 1.33971,-1.98018 1.33972,-3.01941 -1e-5,-0.64045 -0.18658,-1.1739 -0.55969,-1.60034 -0.37314,-0.42642 -0.75299,-0.70637 -1.13953,-0.83984 -0.38657,-0.13346 -0.93324,-0.28015 -1.64001,-0.44007 -0.7068,-0.1599 -1.15378,-0.26671 -1.34095,-0.32043 -0.69336,-0.21321 -1.29985,-0.6199 -1.81946,-1.22009 -0.51961,-0.60017 -0.77942,-1.39342 -0.77941,-2.37976 -10e-6,-1.38671 0.54646,-2.72663 1.6394,-4.01978 1.09293,-1.29311 2.65298,-1.93968 4.68018,-1.9397 1.25324,2e-5 2.27985,0.31334 3.07983,0.93995 0.79995,0.62664 1.19993,1.45997 1.19995,2.5 -2e-5,0.74627 -0.17336,1.29273 -0.52002,1.6394 -0.34669,0.34669 -0.73325,0.52003 -1.15967,0.52002 -0.31984,10e-6 -0.59327,-0.1066 -0.82031,-0.31982 -0.22706,-0.21321 -0.34059,-0.47973 -0.34058,-0.79957 -10e-6,-0.34666 0.13345,-0.6734 0.4004,-0.98022 0.26691,-0.30679 0.64044,-0.51349 1.1206,-0.62012 -0.42726,-1.30695 -1.42742,-1.96043 -3.00049,-1.96045 -1.28012,2e-5 -2.26685,0.39349 -2.9602,1.18042 -0.69337,0.78696 -1.04005,1.60687 -1.04004,2.45972 -1e-5,0.18637 0.0201,0.35971 0.0604,0.52002 0.0403,0.16033 0.0871,0.30051 0.14038,0.42053 0.0533,0.12005 0.12654,0.23337 0.21973,0.33997 0.0932,0.10662 0.17984,0.1998 0.26001,0.27954 0.0802,0.0798 0.18025,0.15301 0.30029,0.21973 0.12003,0.0667 0.22664,0.12004 0.31983,0.15991 0.0932,0.0399 0.20649,0.08 0.33996,0.12024 0.13346,0.0403 0.22684,0.0672 0.28015,0.0806 0.0533,0.0134 0.13325,0.0334 0.23987,0.0598 0.1066,0.0265 0.17313,0.0397 0.19959,0.0397 0.0264,1e-5 0.14647,0.02 0.36011,0.0598 0.21361,0.0399 0.40037,0.08 0.5603,0.12023 0.1599,0.0403 0.38654,0.10032 0.67993,0.18006 0.29336,0.0798 0.54666,0.17966 0.75989,0.29968 0.2132,0.12005 0.45978,0.26002 0.73974,0.41992 0.27994,0.15992 0.52001,0.35341 0.72022,0.58045 0.20018,0.22706 0.38695,0.47384 0.5603,0.74035 0.17333,0.26653 0.30659,0.58636 0.39978,0.95948 0.0932,0.37313 0.13976,0.77332 0.13977,1.20056 -10e-6,0.66651 -0.13999,1.36638 -0.41992,2.09961 -0.27996,0.73324 -0.69337,1.45996 -1.24023,2.18017 -0.54689,0.72022 -1.32692,1.31348 -2.34009,1.77979 -1.0132,0.46631 -2.17327,0.69946 -3.48023,0.69946 -1.51937,0 -2.76571,-0.3599 -3.73901,-1.07971 -0.97331,-0.71981 -1.45996,-1.65303 -1.45996,-2.79968 z"
         style="fill:#000000;stroke:#000000;stroke-opacity:1;fill-opacity:1"
         id="path4199" />
      <path
         d="m 351.74954,479.30725 c 0,-0.13347 0.19999,-0.40019 0.59998,-0.80017 0.39998,-0.39999 0.86669,-0.8667 1.40014,-1.40015 0.53345,-0.53345 1.08683,-1.31348 1.66016,-2.34008 0.57332,-1.02662 0.99344,-2.1401 1.26038,-3.34046 -0.58676,0.40039 -1.12021,0.60059 -1.60035,0.60059 -0.53386,0 -0.96069,-0.1534 -1.28051,-0.46021 -0.31983,-0.3068 -0.47974,-0.71329 -0.47974,-1.21948 0,-0.64046 0.25329,-1.22721 0.75989,-1.76025 0.50658,-0.53304 1.10656,-0.79956 1.79993,-0.79956 1.22639,0 1.83959,0.78654 1.83959,2.35961 0,1.0669 -0.24659,2.20032 -0.73974,3.40027 -0.49317,1.19995 -1.05978,2.23328 -1.69983,3.09998 -0.64006,0.86669 -1.25997,1.59321 -1.85974,2.17956 -0.59978,0.58634 -1.0197,0.87951 -1.25977,0.87952 -0.26693,-10e-6 -0.40039,-0.13306 -0.40039,-0.39917 z"
         style="fill:#000000;stroke:#000000;stroke-opacity:1;fill-opacity:1"
         id="path4201" />
      <path
         d="m 379.07254,455.5072 c 0,-0.45327 0.29337,-0.67991 0.88013,-0.67993 0.13264,2e-5 0.33243,-0.007 0.59936,-0.0201 0.26692,-0.0134 0.46712,-0.0201 0.60059,-0.0201 0.26611,10e-6 0.65917,0.007 1.1792,0.0201 0.52001,0.0134 0.91348,0.0202 1.18042,0.0201 l 1.44043,-5.80078 c 0.0797,-0.3198 0.13284,-0.51308 0.1593,-0.57983 0.0264,-0.0667 0.0797,-0.17332 0.15991,-0.31983 0.0802,-0.14646 0.18025,-0.22642 0.30029,-0.23987 0.12003,-0.0134 0.28666,-0.0201 0.49988,-0.0201 l 0.72022,0 c 0.58674,3e-5 0.88011,0.17337 0.88012,0.52002 -1e-5,0.45331 -0.52003,2.60012 -1.56005,6.44043 l 3.28002,0 c 0.55989,2e-5 0.83983,0.17336 0.83985,0.52002 -2e-5,0.29299 -0.10662,0.48626 -0.31983,0.57983 -0.21323,0.0936 -0.58676,0.1404 -1.1206,0.14038 l -0.63965,0 c -0.26694,2e-5 -0.66041,-0.007 -1.18042,-0.0201 -0.52003,-0.0134 -0.9131,-0.0201 -1.1792,-0.0201 -0.0537,0.15952 -0.12045,0.42604 -0.20019,0.79956 -0.0798,0.37355 -0.1465,0.64048 -0.2002,0.80078 l -2.3999,9.71924 c -0.29379,1.2264 -0.44068,2.0931 -0.44068,2.6001 0,1.06689 0.37353,1.60034 1.12061,1.60034 1.76024,0 3.3203,-1.70695 4.68018,-5.12085 0.13345,-0.34667 0.37352,-0.52001 0.72021,-0.52002 0.34667,1e-5 0.52001,0.1469 0.52002,0.44068 -10e-6,0.72022 -0.59999,1.92017 -1.79993,3.59985 -1.19996,1.67969 -2.61333,2.51953 -4.24011,2.51953 -1.014,0 -1.83432,-0.33997 -2.46094,-1.0199 -0.62663,-0.67993 -0.93994,-1.53991 -0.93994,-2.57995 0,-0.55989 0.0936,-1.14624 0.28076,-1.75904 l 2.76001,-11.08032 -3.23974,0 c -0.58676,2e-5 -0.88013,-0.17332 -0.88013,-0.52002 z"
         style="fill:#000000;stroke:#000000;stroke-opacity:1;fill-opacity:1"
         id="path4203" />
      <path
         d="m 394.71341,455.90637 c -1e-5,-0.18634 0.0334,-0.32611 0.1001,-0.41931 0.0667,-0.0932 0.19998,-0.16641 0.39978,-0.21973 0.19978,-0.0533 0.39306,-0.0934 0.57983,-0.12024 0.18676,-0.0268 0.49356,-0.0535 0.92041,-0.0799 0.42683,-0.0264 0.81359,-0.0665 1.16028,-0.12024 0.0529,2e-5 0.20609,-0.0334 0.45959,-0.1001 0.25349,-0.0667 0.63334,-0.10008 1.13953,-0.1001 l 0.44067,0 c 0.58674,2e-5 0.88012,0.18679 0.88013,0.56031 -0.26694,1.91977 -0.64047,3.03956 -1.1206,3.35937 -1.49334,4.96013 -2.24,8.12053 -2.23999,9.4812 -10e-6,1.25326 0.27993,2.12647 0.83984,2.61963 0.55989,0.49317 1.17349,0.73975 1.84082,0.73975 0.63964,0 1.2329,-0.27995 1.77979,-0.83985 0.54686,-0.55989 0.9269,-1.07319 1.14013,-1.53991 0.2132,-0.46671 0.34626,-0.82011 0.39917,-1.06018 0.0268,-0.10661 0.0537,-0.41992 0.0806,-0.93994 0.0268,-0.52002 0.107,-1.05998 0.24048,-1.61988 0.26609,-1.17349 0.99933,-4.13369 2.1997,-8.88061 0.31981,-1.22639 0.89313,-1.83959 1.71997,-1.8396 0.31981,10e-6 0.58633,0.10662 0.79957,0.31982 0.21319,0.21323 0.3198,0.47975 0.31982,0.79956 -2e-5,0.24009 -0.45331,2.11346 -1.35986,5.62012 -0.9066,3.50668 -1.35988,5.75358 -1.35987,6.74072 -10e-6,1.14665 0.24006,1.97327 0.72022,2.47986 0.48012,0.50659 1.07989,0.75989 1.79931,0.75989 0.61359,0 1.18712,-0.18657 1.72059,-0.55969 0.53342,-0.37313 0.9802,-0.81319 1.34033,-1.32019 0.36008,-0.507 0.70676,-1.17371 1.04004,-2.00013 0.33322,-0.82641 0.57981,-1.51977 0.73974,-2.08008 0.15989,-0.56029 0.34645,-1.25345 0.55969,-2.07946 0.37351,-1.49332 0.56028,-2.53336 0.56031,-3.12012 -3e-5,-1.04003 -0.26004,-1.9468 -0.78003,-2.72034 -0.52005,-0.7735 -0.78006,-1.26687 -0.78003,-1.4801 -3e-5,-0.39956 0.19325,-0.79934 0.57983,-1.19934 0.38653,-0.39997 0.81988,-0.59996 1.30005,-0.59998 0.42641,2e-5 0.81296,0.21324 1.15967,0.63965 0.34665,0.42645 0.51999,1.14626 0.52002,2.15943 -3e-5,0.98715 -0.27326,2.60743 -0.8197,4.86084 -0.5465,2.25342 -1.07323,4.01978 -1.5802,5.29907 -1.35989,3.49365 -3.2532,5.24048 -5.67993,5.24048 -2.23961,0 -3.74636,-0.83985 -4.52027,-2.51953 -0.55991,0.82601 -1.1198,1.44572 -1.67969,1.85913 -0.5599,0.41341 -1.30657,0.62011 -2.23999,0.62011 -1.33301,0 -2.53296,-0.38004 -3.59985,-1.14013 -1.0669,-0.76009 -1.60035,-2.01986 -1.60034,-3.7793 -10e-6,-0.77392 0.21341,-2.02087 0.64026,-3.74084 0.42683,-1.71997 0.86018,-3.28653 1.30005,-4.69971 0.43985,-1.41315 0.65978,-2.13317 0.65979,-2.16004 -10e-6,-0.3198 -0.4533,-0.49314 -1.35987,-0.52002 -0.90658,-0.0268 -1.35987,-0.2136 -1.35986,-0.5603 z"
         style="fill:#000000;stroke:#000000;stroke-opacity:1;fill-opacity:1"
         id="path4205" />
      <path
         d="m 419.59988,465.38757 c 0,-3.22671 1.05998,-5.8734 3.17994,-7.94006 2.11994,-2.06663 4.37987,-3.09996 6.77978,-3.09998 1.14663,2e-5 2.1,0.31334 2.86011,0.93995 0.76007,0.62664 1.14012,1.44654 1.14013,2.45971 -1e-5,0.3467 -0.0533,0.70009 -0.15991,1.06018 -0.10662,0.36012 -0.2999,0.78676 -0.57983,1.27991 -0.27997,0.49318 -0.78005,0.95318 -1.50025,1.38001 -0.72023,0.42684 -1.60035,0.74687 -2.64038,0.96008 -1.38673,0.26612 -3.26661,0.39918 -5.63964,0.39917 -0.4533,1.97348 -0.67994,3.4135 -0.67994,4.32007 0,1.20036 0.24658,2.2406 0.73975,3.12072 0.49316,0.88013 1.27318,1.32019 2.34009,1.32019 1.09292,0 2.27273,-0.3068 3.53943,-0.92041 1.26666,-0.6136 2.36672,-1.4803 3.30017,-2.60009 0.40037,-0.507 0.70717,-0.7605 0.92041,-0.7605 0.13344,0 0.26019,0.0535 0.38025,0.16052 0.12001,0.10702 0.18003,0.24028 0.18005,0.39978 -2e-5,0.34668 -0.3467,0.8667 -1.04004,1.56006 -0.69338,0.69336 -1.7267,1.37329 -3.09997,2.03979 -1.37331,0.66651 -2.7936,0.99976 -4.26087,0.99976 -1.73341,0 -3.12663,-0.64656 -4.17969,-1.9397 -1.05306,-1.29313 -1.57959,-3.00618 -1.57959,-5.13916 z m 3.6792,-3.48022 c 5.86669,10e-6 8.80004,-1.40014 8.80005,-4.20044 -1e-5,-0.7202 -0.23317,-1.30695 -0.69946,-1.76025 -0.46633,-0.45328 -1.07301,-0.67992 -1.82007,-0.67994 -0.4004,2e-5 -0.84718,0.0867 -1.34033,0.26001 -0.49318,0.17336 -1.05979,0.46673 -1.69983,0.88013 -0.64007,0.41343 -1.25347,1.10007 -1.84021,2.05994 -0.58676,0.95989 -1.05348,2.10674 -1.40015,3.44055 z"
         style="fill:#000000;stroke:#000000;stroke-opacity:1;fill-opacity:1"
         id="path4207" />
      <path
         d="m 438.51712,471.38733 c 0,-0.29378 0.0802,-0.70719 0.24048,-1.24024 l 3.03955,-12.1997 c -10e-6,-0.0537 0.0199,-0.16722 0.0598,-0.34058 0.0399,-0.17332 0.0598,-0.29987 0.0598,-0.37964 -1e-5,-0.40037 -0.23988,-0.62722 -0.71961,-0.68054 -0.47974,-0.0533 -0.95968,-0.0932 -1.43982,-0.11963 -0.48014,-0.0264 -0.72022,-0.18655 -0.72021,-0.48034 -1e-5,-0.37271 0.2067,-0.61258 0.62012,-0.71961 0.4134,-0.107 1.39322,-0.20038 2.93945,-0.28015 0.24006,-0.13345 0.60017,-0.20018 1.08032,-0.2002 l 0.52002,0 c 0.6136,2e-5 0.9204,0.20022 0.92041,0.60059 -10e-6,0.10662 -0.12005,0.63966 -0.36011,1.59912 1.62678,-1.73257 3.38663,-2.59886 5.27955,-2.59888 l 0.0403,0 c 1.09292,2e-5 2.05951,0.31985 2.89978,0.95948 0.84023,0.63966 1.26035,1.71958 1.26038,3.23974 -3e-5,1.33384 -0.52676,3.5073 -1.5802,6.52039 -1.05349,3.0131 -1.58022,4.81303 -1.58021,5.39978 -1e-5,0.72021 0.30679,1.08032 0.92041,1.08032 0.79995,0 1.49331,-0.43335 2.08008,-1.30005 0.58673,-0.86669 1.03331,-1.77998 1.33972,-2.73987 0.30638,-0.95987 0.49986,-1.46666 0.58045,-1.52038 0.10658,-0.0797 0.23964,-0.11962 0.39917,-0.11963 0.34666,1e-5 0.52,0.17335 0.52002,0.52002 -2e-5,0.18637 -0.0999,0.57963 -0.29968,1.17981 -0.19982,0.60018 -0.48648,1.28011 -0.85999,2.03979 -0.37356,0.75969 -0.907,1.42619 -1.60034,1.99952 -0.69338,0.57332 -1.45306,0.85998 -2.27905,0.85998 -0.90741,0 -1.64105,-0.3066 -2.20093,-0.9198 -0.55991,-0.6132 -0.83986,-1.38651 -0.83985,-2.31995 -1e-5,-0.45328 0.49336,-2.12646 1.48011,-5.01953 0.98671,-2.89305 1.48008,-5.00649 1.4801,-6.34033 -2e-5,-1.73338 -0.6535,-2.60008 -1.96045,-2.6001 -0.77313,2e-5 -1.51959,0.21344 -2.23938,0.64026 -0.71982,0.42686 -1.32651,0.94016 -1.82007,1.53992 -0.49358,0.59979 -0.89356,1.15968 -1.19995,1.67969 -0.30641,0.52003 -0.52634,0.95338 -0.65979,1.30005 -0.0537,0.16033 -0.90699,3.53394 -2.55981,10.12085 -0.21404,1.30615 -0.78736,1.95922 -1.71997,1.95922 -0.32065,0 -0.58757,-0.0999 -0.80079,-0.29968 -0.21322,-0.19979 -0.31982,-0.47302 -0.31982,-0.8197 z"
         style="fill:#000000;stroke:#000000;stroke-opacity:1;fill-opacity:1"
         id="path4209" />
      <path
         d="m 459.69754,455.5072 c 0,-0.45327 0.29337,-0.67991 0.88013,-0.67993 0.13264,2e-5 0.33243,-0.007 0.59936,-0.0201 0.26692,-0.0134 0.46712,-0.0201 0.60059,-0.0201 0.26611,10e-6 0.65917,0.007 1.1792,0.0201 0.52001,0.0134 0.91348,0.0202 1.18042,0.0201 l 1.44043,-5.80078 c 0.0797,-0.3198 0.13284,-0.51308 0.1593,-0.57983 0.0264,-0.0667 0.0797,-0.17332 0.15991,-0.31983 0.0802,-0.14646 0.18025,-0.22642 0.30029,-0.23987 0.12003,-0.0134 0.28666,-0.0201 0.49988,-0.0201 l 0.72022,0 c 0.58674,3e-5 0.88011,0.17337 0.88012,0.52002 -1e-5,0.45331 -0.52003,2.60012 -1.56005,6.44043 l 3.28002,0 c 0.55989,2e-5 0.83983,0.17336 0.83985,0.52002 -2e-5,0.29299 -0.10662,0.48626 -0.31983,0.57983 -0.21323,0.0936 -0.58676,0.1404 -1.1206,0.14038 l -0.63965,0 c -0.26694,2e-5 -0.66041,-0.007 -1.18042,-0.0201 -0.52003,-0.0134 -0.9131,-0.0201 -1.1792,-0.0201 -0.0537,0.15952 -0.12045,0.42604 -0.20019,0.79956 -0.0798,0.37355 -0.1465,0.64048 -0.2002,0.80078 l -2.3999,9.71924 c -0.29379,1.2264 -0.44068,2.0931 -0.44068,2.6001 0,1.06689 0.37353,1.60034 1.12061,1.60034 1.76024,0 3.3203,-1.70695 4.68018,-5.12085 0.13345,-0.34667 0.37352,-0.52001 0.72021,-0.52002 0.34667,1e-5 0.52001,0.1469 0.52002,0.44068 -10e-6,0.72022 -0.59999,1.92017 -1.79993,3.59985 -1.19996,1.67969 -2.61333,2.51953 -4.24011,2.51953 -1.014,0 -1.83432,-0.33997 -2.46094,-1.0199 -0.62663,-0.67993 -0.93994,-1.53991 -0.93994,-2.57995 0,-0.55989 0.0936,-1.14624 0.28076,-1.75904 l 2.76001,-11.08032 -3.23974,0 c -0.58676,2e-5 -0.88013,-0.17332 -0.88013,-0.52002 z"
         style="fill:#000000;stroke:#000000;stroke-opacity:1;fill-opacity:1"
         id="path4211" />
      <path
         d="m 473.21805,476.7865 c -1e-5,-0.82601 0.2067,-1.44572 0.62012,-1.85913 0.4134,-0.41342 0.87361,-0.62012 1.38061,-0.62012 0.39957,0 0.72611,0.12003 0.97961,0.36011 0.2535,0.24007 0.38025,0.54646 0.38025,0.91919 0,0.40038 -0.15341,0.8138 -0.4602,1.24023 -0.30681,0.42643 -0.83334,0.65307 -1.57959,0.67993 0.45328,1.22721 1.29312,1.84082 2.51953,1.84082 1.20035,0 2.33377,-0.56682 3.40027,-1.70044 1.06647,-1.13363 1.91954,-2.68717 2.5592,-4.66064 0.13345,-0.42643 0.30679,-1.09294 0.52002,-1.99951 -1.1727,0.98633 -2.37265,1.47949 -3.59985,1.47949 -1.19955,0 -2.2461,-0.34648 -3.13965,-1.03943 -0.89356,-0.69295 -1.34034,-1.87967 -1.34033,-3.56018 -10e-6,-0.87971 0.22013,-2.17956 0.6604,-3.89953 0.44026,-1.71997 0.88032,-3.28002 1.32019,-4.68018 0.43985,-1.40013 0.65978,-2.15351 0.65979,-2.26013 -10e-6,-0.26691 -0.18006,-0.43374 -0.54016,-0.50049 -0.36012,-0.0667 -0.76681,-0.10008 -1.22009,-0.1001 -0.4533,2e-5 -0.73325,-0.0399 -0.83985,-0.11963 -0.24008,-0.15949 -0.26652,-0.41258 -0.0793,-0.75927 0.13264,-0.21402 0.42561,-0.34748 0.8789,-0.4004 2.66682,-0.24005 4.14713,-0.36009 4.44092,-0.3601 l 0.0391,0 c 0.40038,10e-6 0.60058,0.17335 0.60059,0.52002 -10e-6,0.24008 -0.15993,1.00018 -0.47974,2.28027 -0.18718,0.58677 -0.40081,0.94647 -0.64087,1.0791 -1.57309,5.28077 -2.35962,8.57423 -2.35962,9.88037 0,2.00033 0.73323,3.00049 2.19971,3.00049 0.90656,0 1.74661,-0.34668 2.52014,-1.04004 0.77351,-0.69336 1.2803,-1.34684 1.52039,-1.96045 0.0529,-0.1595 0.11269,-0.37943 0.17944,-0.65979 0.0667,-0.28035 0.11351,-0.47383 0.14038,-0.58044 l 2.64038,-10.43945 0.0403,-0.2002 c 0.026,-0.13345 0.0525,-0.24677 0.0793,-0.33997 0.0268,-0.0932 0.0669,-0.21971 0.12024,-0.37963 0.0533,-0.1599 0.12653,-0.29987 0.21973,-0.41993 0.0932,-0.12002 0.19305,-0.23334 0.29968,-0.33996 0.10659,-0.10659 0.24005,-0.19326 0.40039,-0.26001 0.1603,-0.0667 0.33364,-0.10008 0.52002,-0.1001 0.29295,2e-5 0.54625,0.0999 0.75989,0.29968 0.2136,0.19981 0.32041,0.45961 0.32043,0.77942 -2e-5,0.0806 -0.0202,0.20082 -0.0604,0.36072 -0.0403,0.15993 -0.0605,0.25331 -0.0604,0.28015 l -3.6792,14.75952 c -0.37355,1.46647 -0.88034,2.76652 -1.52038,3.90015 -0.64007,1.13362 -1.29335,2.00703 -1.95984,2.62024 -0.66652,0.61319 -1.37981,1.11978 -2.13989,1.51977 -0.7601,0.39998 -1.40016,0.65328 -1.92017,0.75989 -0.52003,0.1066 -1.00668,0.15991 -1.45996,0.15991 -1.1198,0 -2.0398,-0.32003 -2.76001,-0.96008 -0.72022,-0.64006 -1.08033,-1.48011 -1.08032,-2.52014 z"
         style="fill:#000000;stroke:#000000;stroke-opacity:1;fill-opacity:1"
         id="path4213" />
      <path
         d="m 507.56863,465.38757 c 0,-3.22671 1.05998,-5.8734 3.17994,-7.94006 2.11994,-2.06663 4.37987,-3.09996 6.77978,-3.09998 1.14663,2e-5 2.1,0.31334 2.86011,0.93995 0.76007,0.62664 1.14012,1.44654 1.14013,2.45971 -10e-6,0.3467 -0.0533,0.70009 -0.15991,1.06018 -0.10662,0.36012 -0.2999,0.78676 -0.57983,1.27991 -0.27997,0.49318 -0.78005,0.95318 -1.50025,1.38001 -0.72023,0.42684 -1.60035,0.74687 -2.64038,0.96008 -1.38673,0.26612 -3.26661,0.39918 -5.63964,0.39917 -0.4533,1.97348 -0.67994,3.4135 -0.67994,4.32007 0,1.20036 0.24658,2.2406 0.73975,3.12072 0.49316,0.88013 1.27318,1.32019 2.34009,1.32019 1.09292,0 2.27273,-0.3068 3.53943,-0.92041 1.26666,-0.6136 2.36672,-1.4803 3.30017,-2.60009 0.40037,-0.507 0.70717,-0.7605 0.92041,-0.7605 0.13344,0 0.26019,0.0535 0.38025,0.16052 0.12001,0.10702 0.18003,0.24028 0.18005,0.39978 -2e-5,0.34668 -0.3467,0.8667 -1.04004,1.56006 -0.69338,0.69336 -1.7267,1.37329 -3.09997,2.03979 -1.37331,0.66651 -2.7936,0.99976 -4.26087,0.99976 -1.73341,0 -3.12663,-0.64656 -4.17969,-1.9397 -1.05306,-1.29313 -1.57959,-3.00618 -1.57959,-5.13916 z m 3.6792,-3.48022 c 5.86669,10e-6 8.80004,-1.40014 8.80005,-4.20044 -10e-6,-0.7202 -0.23317,-1.30695 -0.69946,-1.76025 -0.46633,-0.45328 -1.07301,-0.67992 -1.82007,-0.67994 -0.4004,2e-5 -0.84718,0.0867 -1.34033,0.26001 -0.49318,0.17336 -1.05979,0.46673 -1.69983,0.88013 -0.64007,0.41343 -1.25347,1.10007 -1.84021,2.05994 -0.58676,0.95989 -1.05348,2.10674 -1.40015,3.44055 z"
         style="fill:#000000;stroke:#000000;stroke-opacity:1;fill-opacity:1"
         id="path4215" />
      <path
         d="m 525.76566,466.26648 c -10e-6,-2.93293 0.9733,-5.65266 2.91992,-8.15918 1.9466,-2.50649 4.02668,-3.75975 6.24023,-3.75977 1.52017,2e-5 2.64037,0.78656 3.3606,2.35962 0.2132,-0.93341 0.53302,-2.22003 0.95947,-3.85986 0.42641,-1.63979 0.7796,-3.01979 1.05957,-4.14001 0.27993,-1.12018 0.4199,-1.78689 0.41992,-2.00013 -2e-5,-0.48011 -0.47996,-0.7269 -1.43982,-0.74035 -0.95989,-0.0134 -1.43983,-0.20648 -1.43982,-0.57923 -10e-6,-0.42722 0.4134,-0.68071 1.24024,-0.76049 2.7197,-0.24005 4.09299,-0.36008 4.11987,-0.36011 0.42641,3e-5 0.63963,0.18679 0.63965,0.5603 -2e-5,0.21324 -0.0533,0.47976 -0.15991,0.79956 l -5.31983,21.15967 c -0.37355,1.46729 -0.56032,2.52075 -0.5603,3.1604 -2e-5,1.06689 0.34666,1.60034 1.04004,1.60034 0.40037,0 0.77391,-0.22664 1.1206,-0.67993 0.34667,-0.45329 0.59996,-0.90657 0.75989,-1.35986 0.1599,-0.45329 0.33995,-1.04675 0.54016,-1.7804 0.20018,-0.73364 0.3133,-1.15376 0.33936,-1.26038 0.10659,-0.37352 0.33323,-0.56029 0.67993,-0.5603 0.37351,1e-5 0.56028,0.17335 0.5603,0.52002 -2e-5,0.13347 -0.0265,0.30681 -0.0793,0.52002 -0.45331,1.76026 -0.96682,3.12032 -1.54053,4.0802 -0.57375,0.95988 -1.40708,1.43982 -2.5,1.43982 -0.74627,0 -1.41949,-0.22664 -2.01965,-0.67993 -0.6002,-0.45329 -1.00689,-1.15967 -1.2201,-2.11914 -1.68051,1.86605 -3.29387,2.79907 -4.84008,2.79907 -1.44044,0 -2.61394,-0.57983 -3.52051,-1.7395 -0.90658,-1.15967 -1.35987,-2.64648 -1.35986,-4.46045 z m 2.71972,1.76025 c 0,0.90658 0.17333,1.71998 0.52002,2.44019 0.34667,0.72021 0.92,1.08032 1.71997,1.08032 0.90738,0 1.84101,-0.46 2.80091,-1.38 0.95986,-0.92 1.61314,-1.74011 1.95983,-2.46033 0.0529,-0.13346 0.43273,-1.56677 1.13953,-4.29993 0.70677,-2.73314 1.06017,-4.23318 1.06018,-4.50012 -1e-5,-0.63963 -0.22666,-1.40624 -0.67993,-2.2998 -0.4533,-0.89354 -1.14666,-1.34032 -2.08008,-1.34034 -1.17351,2e-5 -2.30673,0.81341 -3.39966,2.44019 -0.85368,1.22641 -1.5739,2.99297 -2.16064,5.29968 -0.58676,2.30673 -0.88013,3.98011 -0.88013,5.02014 z"
         style="fill:#000000;stroke:#000000;stroke-opacity:1;fill-opacity:1"
         id="path4217" />
      <path
         d="m 544.0347,477.9071 c 0,-0.507 0.18656,-0.98714 0.55969,-1.44043 0.37313,-0.45329 0.84004,-0.67993 1.40076,-0.67993 0.42643,0 0.75968,0.12675 0.99975,0.38025 0.24007,0.2535 0.36011,0.56701 0.36011,0.94055 0,0.79997 -0.42684,1.39974 -1.28052,1.79932 0.77311,0.29378 1.73299,0.44067 2.87964,0.44067 1.33382,0 2.42065,-0.43335 3.2605,-1.30004 0.83983,-0.86671 1.44652,-1.76677 1.82007,-2.7002 0.37352,-0.88054 0.85366,-2.69409 1.44043,-5.44067 -1.5202,1.41357 -2.9472,2.12036 -4.28101,2.12036 -1.43962,0 -2.61272,-0.58004 -3.51928,-1.74011 -0.90659,-1.16008 -1.35987,-2.62024 -1.35987,-4.3805 0,-2.87922 0.96659,-5.5255 2.89978,-7.93884 1.93318,-2.41331 3.99311,-3.61998 6.17981,-3.62 1.35985,2e-5 2.49307,0.75971 3.39966,2.27906 0.2132,-0.95946 0.73322,-1.4392 1.56006,-1.43921 0.3198,10e-6 0.57981,0.0932 0.78003,0.27954 0.20017,0.18638 0.30027,0.43988 0.30029,0.7605 -2e-5,0.13266 -0.0269,0.306 -0.0806,0.52002 l -4.27978,17.15942 c -0.26613,0.96028 -0.43947,1.54703 -0.52002,1.76025 -0.48016,1.09294 -1.36679,2.13277 -2.65991,3.11951 -1.29314,0.98673 -2.93987,1.4801 -4.94019,1.4801 -3.27962,0 -4.91943,-0.78654 -4.91943,-2.35962 z m 5.04028,-10.24047 c -10e-6,0.88053 0.17333,1.67399 0.52002,2.38037 0.34667,0.70638 0.92,1.05957 1.71997,1.05957 1.35985,0 2.74657,-0.95988 4.16016,-2.87964 0.34666,-0.48014 0.58633,-0.92 0.71899,-1.31958 0.0806,-0.24007 0.65388,-2.48006 1.71997,-6.71997 0.18716,-0.69335 0.28075,-1.14664 0.28076,-1.35987 -10e-6,-0.61359 -0.22666,-1.36045 -0.67993,-2.2406 -0.4533,-0.88011 -1.14666,-1.32017 -2.08008,-1.32019 -1.14665,2e-5 -2.27987,0.78697 -3.39965,2.36084 -0.85369,1.19956 -1.56048,2.9061 -2.12036,5.11963 -0.55991,2.21355 -0.83986,3.85336 -0.83985,4.91944 z"
         style="fill:#000000;stroke:#000000;stroke-opacity:1;fill-opacity:1"
         id="path4219" />
      <path
         d="m 564.91238,465.38757 c 0,-3.22671 1.05998,-5.8734 3.17994,-7.94006 2.11994,-2.06663 4.37987,-3.09996 6.77978,-3.09998 1.14663,2e-5 2.1,0.31334 2.86011,0.93995 0.76007,0.62664 1.14012,1.44654 1.14013,2.45971 -10e-6,0.3467 -0.0533,0.70009 -0.15991,1.06018 -0.10662,0.36012 -0.2999,0.78676 -0.57983,1.27991 -0.27997,0.49318 -0.78005,0.95318 -1.50025,1.38001 -0.72023,0.42684 -1.60035,0.74687 -2.64038,0.96008 -1.38673,0.26612 -3.26661,0.39918 -5.63964,0.39917 -0.4533,1.97348 -0.67994,3.4135 -0.67994,4.32007 0,1.20036 0.24658,2.2406 0.73975,3.12072 0.49316,0.88013 1.27318,1.32019 2.34009,1.32019 1.09292,0 2.27273,-0.3068 3.53943,-0.92041 1.26666,-0.6136 2.36672,-1.4803 3.30017,-2.60009 0.40037,-0.507 0.70717,-0.7605 0.92041,-0.7605 0.13344,0 0.26019,0.0535 0.38025,0.16052 0.12001,0.10702 0.18003,0.24028 0.18005,0.39978 -2e-5,0.34668 -0.3467,0.8667 -1.04004,1.56006 -0.69338,0.69336 -1.7267,1.37329 -3.09997,2.03979 -1.37331,0.66651 -2.7936,0.99976 -4.26087,0.99976 -1.73341,0 -3.12663,-0.64656 -4.17969,-1.9397 -1.05306,-1.29313 -1.57959,-3.00618 -1.57959,-5.13916 z m 3.6792,-3.48022 c 5.86669,10e-6 8.80004,-1.40014 8.80005,-4.20044 -10e-6,-0.7202 -0.23317,-1.30695 -0.69946,-1.76025 -0.46633,-0.45328 -1.07301,-0.67992 -1.82007,-0.67994 -0.4004,2e-5 -0.84718,0.0867 -1.34033,0.26001 -0.49318,0.17336 -1.05979,0.46673 -1.69983,0.88013 -0.64007,0.41343 -1.25347,1.10007 -1.84021,2.05994 -0.58676,0.95989 -1.05348,2.10674 -1.40015,3.44055 z"
         style="fill:#000000;stroke:#000000;stroke-opacity:1;fill-opacity:1"
         id="path4221" />
      <path
         d="m 581.83011,468.58704 c 0,-0.82682 0.21321,-1.44694 0.63965,-1.86036 0.42643,-0.4134 0.87971,-0.62011 1.35986,-0.62011 0.40039,0 0.72713,0.12675 0.98022,0.38025 0.25309,0.2535 0.37964,0.56702 0.37964,0.94055 0,0.39958 -0.15991,0.81279 -0.47973,1.23962 -0.31983,0.42684 -0.83985,0.65369 -1.56006,0.68054 0.58675,1.49333 1.8933,2.23999 3.91968,2.23999 1.65363,0 2.92703,-0.48685 3.82019,-1.46057 0.89313,-0.97371 1.33971,-1.98018 1.33972,-3.01941 -10e-6,-0.64045 -0.18658,-1.1739 -0.55969,-1.60034 -0.37314,-0.42642 -0.75299,-0.70637 -1.13953,-0.83984 -0.38657,-0.13346 -0.93324,-0.28015 -1.64001,-0.44007 -0.7068,-0.1599 -1.15378,-0.26671 -1.34095,-0.32043 -0.69336,-0.21321 -1.29985,-0.6199 -1.81946,-1.22009 -0.51961,-0.60017 -0.77942,-1.39342 -0.77941,-2.37976 -1e-5,-1.38671 0.54646,-2.72663 1.6394,-4.01978 1.09293,-1.29311 2.65298,-1.93968 4.68018,-1.9397 1.25324,2e-5 2.27985,0.31334 3.07983,0.93995 0.79995,0.62664 1.19993,1.45997 1.19995,2.5 -2e-5,0.74627 -0.17336,1.29273 -0.52002,1.6394 -0.34669,0.34669 -0.73325,0.52003 -1.15967,0.52002 -0.31984,10e-6 -0.59327,-0.1066 -0.82031,-0.31982 -0.22706,-0.21321 -0.34059,-0.47973 -0.34058,-0.79957 -1e-5,-0.34666 0.13345,-0.6734 0.4004,-0.98022 0.26691,-0.30679 0.64044,-0.51349 1.1206,-0.62012 -0.42726,-1.30695 -1.42742,-1.96043 -3.00049,-1.96045 -1.28012,2e-5 -2.26685,0.39349 -2.9602,1.18042 -0.69337,0.78696 -1.04005,1.60687 -1.04004,2.45972 -10e-6,0.18637 0.0201,0.35971 0.0604,0.52002 0.0403,0.16033 0.0871,0.30051 0.14038,0.42053 0.0533,0.12005 0.12654,0.23337 0.21973,0.33997 0.0932,0.10662 0.17984,0.1998 0.26001,0.27954 0.0802,0.0798 0.18025,0.15301 0.30029,0.21973 0.12003,0.0667 0.22664,0.12004 0.31983,0.15991 0.0932,0.0399 0.20649,0.08 0.33996,0.12024 0.13346,0.0403 0.22684,0.0672 0.28015,0.0806 0.0533,0.0134 0.13325,0.0334 0.23987,0.0598 0.1066,0.0265 0.17313,0.0397 0.19959,0.0397 0.0264,1e-5 0.14647,0.02 0.36011,0.0598 0.21361,0.0399 0.40037,0.08 0.5603,0.12023 0.1599,0.0403 0.38654,0.10032 0.67993,0.18006 0.29336,0.0798 0.54666,0.17966 0.75989,0.29968 0.2132,0.12005 0.45978,0.26002 0.73974,0.41992 0.27994,0.15992 0.52001,0.35341 0.72022,0.58045 0.20018,0.22706 0.38695,0.47384 0.5603,0.74035 0.17333,0.26653 0.30659,0.58636 0.39978,0.95948 0.0932,0.37313 0.13976,0.77332 0.13977,1.20056 -10e-6,0.66651 -0.13999,1.36638 -0.41992,2.09961 -0.27996,0.73324 -0.69337,1.45996 -1.24023,2.18017 -0.54689,0.72022 -1.32692,1.31348 -2.34009,1.77979 -1.0132,0.46631 -2.17327,0.69946 -3.48023,0.69946 -1.51937,0 -2.76571,-0.3599 -3.73901,-1.07971 -0.97331,-0.71981 -1.45996,-1.65303 -1.45996,-2.79968 z"
         style="fill:#000000;stroke:#000000;stroke-opacity:1;fill-opacity:1"
         id="path4223" />
      <path
         d="m 253.64774,529.26697 c 0,-0.42644 0.3599,-0.6598 1.07971,-0.70008 0.7198,-0.0403 1.19974,-0.19348 1.43982,-0.45959 0.13346,-0.18718 0.33365,-0.72063 0.60058,-1.60034 l 4.35913,-17.6001 c 0.21403,-0.79995 0.32104,-1.34642 0.32105,-1.6394 -1e-5,-0.40038 -0.23337,-0.63394 -0.70007,-0.70069 -0.46673,-0.0667 -0.94016,-0.1133 -1.42029,-0.13977 -0.48015,-0.0264 -0.72022,-0.19997 -0.72022,-0.52063 0,-0.34585 0.21342,-0.57229 0.64026,-0.67932 0.42683,-0.107 1.38692,-0.20038 2.88025,-0.28015 0.23925,-0.13345 0.59895,-0.20018 1.0791,-0.2002 l 0.31983,0 c 0.42723,2e-5 0.72752,0.0334 0.90087,0.1001 0.17333,0.0668 0.26,0.22015 0.26001,0.46021 -10e-6,0.0537 -0.0802,0.4004 -0.24047,1.04004 1.46645,-1.35985 2.8666,-2.03978 4.20044,-2.0398 1.46645,2e-5 2.64626,0.58657 3.53942,1.75964 0.89313,1.17312 1.33971,2.66664 1.33973,4.4806 -2e-5,2.9598 -0.97333,5.69295 -2.91993,8.19946 -1.94663,2.50651 -4.03972,3.75976 -6.27929,3.75976 -1.38673,0 -2.51995,-0.74666 -3.39966,-2.23999 -0.10743,0.48015 -0.32105,1.34013 -0.64087,2.57996 -0.31983,1.23983 -0.59978,2.35311 -0.83984,3.33984 -0.24008,0.98673 -0.36012,1.54683 -0.36011,1.6803 -1e-5,0.45328 0.44677,0.68664 1.34033,0.70007 0.89355,0.0134 1.39363,0.11332 1.50024,0.29969 0.0529,0.1066 0.0793,0.18676 0.0794,0.24048 -1e-5,0.16031 -0.08,0.31371 -0.23987,0.4602 -0.15992,0.14648 -0.35991,0.21972 -0.59997,0.21973 -0.13347,-10e-6 -0.57354,-0.0134 -1.32019,-0.0403 -0.74667,-0.0269 -1.55986,-0.0403 -2.43958,-0.0403 -0.53304,-10e-6 -1.11308,0.007 -1.74011,0.0201 -0.62704,0.0134 -1.00688,0.0201 -1.13953,0.0201 -0.34668,0 -0.58004,-0.0334 -0.70007,-0.10009 -0.12004,-0.0667 -0.18005,-0.19329 -0.18005,-0.37964 z m 7.9602,-11.40015 c -10e-6,0.34668 0.0665,0.77332 0.19959,1.27991 0.13304,0.50659 0.42622,1.02661 0.87951,1.56006 0.45328,0.53345 1.00015,0.80017 1.64063,0.80017 0.98631,0 1.90611,-0.52673 2.7594,-1.5802 0.85325,-1.05347 1.52667,-2.31343 2.02026,-3.77991 0.49355,-1.46646 0.88031,-2.86641 1.16028,-4.19983 0.27993,-1.3334 0.4199,-2.38666 0.41992,-3.15979 -2e-5,-1.09373 -0.19329,-1.94721 -0.57983,-2.56042 -0.38658,-0.61319 -0.91351,-0.91979 -1.58081,-0.9198 -1.41278,1e-5 -2.86582,1.07993 -4.35913,3.23974 -0.26694,0.42645 -0.49359,0.98634 -0.67994,1.67969 -0.0537,0.10743 -0.62704,2.34742 -1.71997,6.71997 -0.10661,0.53386 -0.15992,0.84066 -0.15991,0.92041 z"
         style="fill:#000000;stroke:#000000;stroke-opacity:1;fill-opacity:1"
         id="path4225" />
      <path
         d="m 277.19754,518.86658 c 0,-0.31982 0.13346,-1.05306 0.40039,-2.19971 l 4.63989,-18.51929 c 0.18717,-0.74704 0.28076,-1.22719 0.28077,-1.44043 -1e-5,-0.48011 -0.46673,-0.7269 -1.40015,-0.74035 -0.93344,-0.0134 -1.42701,-0.1666 -1.48071,-0.4596 -0.026,-0.24004 0.0409,-0.42681 0.2008,-0.5603 0.15991,-0.13344 0.28645,-0.20688 0.37964,-0.22034 0.0932,-0.0134 0.24637,-0.0331 0.45959,-0.0592 0.40039,-0.0268 0.95377,-0.0736 1.66016,-0.14038 0.70637,-0.0667 1.30635,-0.12672 1.79993,-0.18006 0.49356,-0.0533 0.76679,-0.0799 0.8197,-0.0799 0.45328,3e-5 0.67992,0.18679 0.67993,0.5603 -10e-6,0.10664 -0.0267,0.2399 -0.0799,0.39978 -0.0533,0.15994 -0.08,0.25332 -0.08,0.28015 l -5.52002,22.23999 c -0.23926,1.04004 -0.35889,1.78671 -0.35889,2.23999 0,1.04004 0.34627,1.56006 1.03882,1.56006 0.21402,0 0.42765,-0.0667 0.64087,-0.20019 0.21321,-0.13347 0.40649,-0.34017 0.57983,-0.62012 0.17334,-0.27995 0.32674,-0.54667 0.46021,-0.80017 0.13345,-0.2535 0.26,-0.57353 0.37964,-0.96009 0.11962,-0.38655 0.2128,-0.69315 0.27954,-0.9198 0.0667,-0.22663 0.14688,-0.52001 0.24048,-0.88012 0.0936,-0.3601 0.14037,-0.55318 0.14038,-0.57923 0.13345,-0.45409 0.3601,-0.68114 0.67993,-0.68115 0.37352,10e-6 0.56029,0.17335 0.5603,0.52002 -10e-6,0.58676 -0.28036,1.64022 -0.84106,3.1604 -0.77312,1.91976 -1.85304,2.87964 -3.23975,2.87964 -0.98633,0 -1.7863,-0.34648 -2.3999,-1.03943 -0.61361,-0.69295 -0.92041,-1.54642 -0.92041,-2.56042 z"
         style="fill:#000000;stroke:#000000;stroke-opacity:1;fill-opacity:1"
         id="path4227" />
      <path
         d="m 287.91409,516.26648 c 0,-2.93293 0.96679,-5.65266 2.90039,-8.15918 1.93359,-2.50649 4.02017,-3.75975 6.25977,-3.75977 1.3867,2e-5 2.5069,0.78656 3.36059,2.35962 0.23925,-1.01316 0.75926,-1.51976 1.56006,-1.51977 0.31981,10e-6 0.58633,0.10662 0.79956,0.31982 0.2132,0.21323 0.31981,0.46633 0.31983,0.75928 -2e-5,0.10662 -0.0533,0.36012 -0.15991,0.7605 l -2.51954,10.08056 c -0.32065,1.22641 -0.48097,2.17286 -0.48095,2.83936 -2e-5,1.06689 0.34666,1.60034 1.04004,1.60034 0.42723,0 0.8207,-0.26001 1.18042,-0.78003 0.35968,-0.52002 0.63291,-1.05997 0.8197,-1.61987 0.18675,-0.55989 0.38674,-1.23982 0.59997,-2.0398 0.0537,-0.21402 0.094,-0.37434 0.12085,-0.48095 0.13263,-0.48014 0.35928,-0.72021 0.67994,-0.72022 0.39955,10e-6 0.59934,0.17335 0.59936,0.52002 -0.0529,0.32064 -0.13287,0.72755 -0.23987,1.2207 -0.10703,0.49317 -0.38718,1.24635 -0.84045,2.25953 -0.45331,1.01318 -0.9599,1.71997 -1.51978,2.12036 -0.39959,0.29297 -0.90618,0.43945 -1.51977,0.43945 -0.74627,0 -1.41949,-0.22664 -2.01966,-0.67993 -0.60019,-0.45329 -1.00689,-1.15967 -1.22009,-2.11914 -1.68051,1.86605 -3.29387,2.79907 -4.84009,2.79907 -1.46647,0 -2.64649,-0.57332 -3.54003,-1.71997 -0.89356,-1.14664 -1.34034,-2.63997 -1.34034,-4.47998 z m 2.71973,1.76025 c -1e-5,0.90658 0.17333,1.71998 0.52002,2.44019 0.34667,0.72021 0.91999,1.08032 1.71997,1.08032 0.90738,0 1.84101,-0.46 2.8009,-1.38 0.95987,-0.92 1.61315,-1.74011 1.95984,-2.46033 0.0529,-0.13346 0.43273,-1.56677 1.13953,-4.29993 0.70677,-2.73314 1.06016,-4.23318 1.06018,-4.50012 -2e-5,-0.63963 -0.22666,-1.40624 -0.67993,-2.2998 -0.45331,-0.89354 -1.14666,-1.34032 -2.08008,-1.34034 -1.14666,2e-5 -2.27988,0.81341 -3.39966,2.44019 -0.85369,1.22641 -1.5739,2.99297 -2.16064,5.29968 -0.58676,2.30673 -0.88014,3.98011 -0.88013,5.02014 z"
         style="fill:#000000;stroke:#000000;stroke-opacity:1;fill-opacity:1"
         id="path4229" />
      <path
         d="m 307.8616,505.5072 c 0,-0.45327 0.29337,-0.67991 0.88013,-0.67993 0.13264,2e-5 0.33243,-0.007 0.59936,-0.0201 0.26693,-0.0134 0.46712,-0.0201 0.60059,-0.0201 0.26611,10e-6 0.65917,0.007 1.1792,0.0201 0.52001,0.0134 0.91349,0.0202 1.18042,0.0201 l 1.44043,-5.80078 c 0.0797,-0.3198 0.13284,-0.51308 0.1593,-0.57983 0.0264,-0.0667 0.0797,-0.17332 0.15991,-0.31983 0.0802,-0.14646 0.18025,-0.22642 0.3003,-0.23987 0.12002,-0.0134 0.28665,-0.0201 0.49987,-0.0201 l 0.72022,0 c 0.58674,3e-5 0.88011,0.17337 0.88013,0.52002 -2e-5,0.45331 -0.52003,2.60012 -1.56006,6.44043 l 3.28003,0 c 0.55988,2e-5 0.83983,0.17336 0.83984,0.52002 -1e-5,0.29299 -0.10662,0.48626 -0.31982,0.57983 -0.21323,0.0936 -0.58677,0.1404 -1.12061,0.14038 l -0.63965,0 c -0.26694,2e-5 -0.66041,-0.007 -1.18042,-0.0201 -0.52003,-0.0134 -0.91309,-0.0201 -1.1792,-0.0201 -0.0537,0.15952 -0.12045,0.42604 -0.20019,0.79956 -0.0798,0.37355 -0.1465,0.64048 -0.2002,0.80078 l -2.3999,9.71924 c -0.29379,1.2264 -0.44068,2.0931 -0.44067,2.6001 -1e-5,1.06689 0.37352,1.60034 1.1206,1.60034 1.76025,0 3.3203,-1.70695 4.68018,-5.12085 0.13345,-0.34667 0.37352,-0.52001 0.72021,-0.52002 0.34667,10e-6 0.52001,0.1469 0.52002,0.44068 -10e-6,0.72022 -0.59999,1.92017 -1.79992,3.59985 -1.19997,1.67969 -2.61334,2.51953 -4.24012,2.51953 -1.014,0 -1.83431,-0.33997 -2.46093,-1.0199 -0.62664,-0.67993 -0.93995,-1.53991 -0.93995,-2.57995 0,-0.55989 0.0936,-1.14624 0.28077,-1.75904 l 2.76001,-11.08032 -3.23975,0 c -0.58676,2e-5 -0.88013,-0.17332 -0.88013,-0.52002 z"
         style="fill:#000000;stroke:#000000;stroke-opacity:1;fill-opacity:1"
         id="path4231" />
      <path
         d="m 321.7825,515.90637 c 0,-2.90608 1.06669,-5.55907 3.20007,-7.95898 2.13338,-2.39989 4.45332,-3.59984 6.95984,-3.59986 1.76024,2e-5 3.17361,0.61322 4.24012,1.8396 1.06646,1.22642 1.59971,2.81292 1.59973,4.75953 -2e-5,2.9069 -1.06671,5.55359 -3.20008,7.94006 -2.13339,2.38647 -4.45334,3.57971 -6.95984,3.57971 -1.7334,0 -3.14006,-0.6132 -4.21997,-1.8396 -1.07992,-1.2264 -1.61987,-2.79988 -1.61987,-4.72046 z m 2.83936,1.56006 c -1e-5,1.28011 0.27343,2.28028 0.82031,3.00049 0.54687,0.72021 1.28702,1.08032 2.22046,1.08032 1.41356,0 2.74697,-0.73323 4.00024,-2.19971 0.95946,-1.14664 1.75251,-2.75349 2.37915,-4.82055 0.62661,-2.06705 0.93993,-3.78051 0.93994,-5.14038 -1e-5,-1.2801 -0.27996,-2.28677 -0.83984,-3.02002 -0.55991,-0.73322 -1.30657,-1.09984 -2.23999,-1.09986 -1.35988,2e-5 -2.67986,0.74668 -3.95996,2.23999 -0.95948,1.11981 -1.75274,2.72646 -2.37976,4.81995 -0.62704,2.09351 -0.94056,3.80677 -0.94055,5.13977 z"
         style="fill:#000000;stroke:#000000;stroke-opacity:1;fill-opacity:1"
         id="path4233" />
      <path
         d="m 342.85306,521.38733 c -1e-5,-0.29378 0.0801,-0.70719 0.24048,-1.24024 l 3.03955,-12.1997 c -10e-6,-0.0537 0.0199,-0.16722 0.0598,-0.34058 0.0399,-0.17332 0.0598,-0.29987 0.0598,-0.37964 -1e-5,-0.40037 -0.23988,-0.62722 -0.71961,-0.68054 -0.47974,-0.0533 -0.95968,-0.0932 -1.43982,-0.11963 -0.48015,-0.0264 -0.72022,-0.18655 -0.72021,-0.48034 -1e-5,-0.37271 0.2067,-0.61258 0.62011,-0.71961 0.41341,-0.107 1.39323,-0.20038 2.93946,-0.28015 0.24006,-0.13345 0.60017,-0.20018 1.08032,-0.2002 l 0.52002,0 c 0.61359,2e-5 0.9204,0.20022 0.92041,0.60059 -10e-6,0.10662 -0.12005,0.63966 -0.36011,1.59912 1.62678,-1.73257 3.38662,-2.59886 5.27954,-2.59888 l 0.0403,0 c 1.09291,2e-5 2.05951,0.31985 2.89978,0.95948 0.84023,0.63966 1.26035,1.71958 1.26037,3.23974 -2e-5,1.33384 -0.52675,3.5073 -1.5802,6.52039 -1.05348,3.0131 -1.58022,4.81303 -1.5802,5.39978 -2e-5,0.72021 0.30679,1.08032 0.92041,1.08032 0.79995,0 1.49331,-0.43335 2.08008,-1.30005 0.58673,-0.86669 1.0333,-1.77998 1.33972,-2.73987 0.30638,-0.95987 0.49986,-1.46666 0.58045,-1.52038 0.10658,-0.0797 0.23964,-0.11962 0.39917,-0.11963 0.34665,10e-6 0.51999,0.17335 0.52002,0.52002 -3e-5,0.18637 -0.0999,0.57963 -0.29969,1.17981 -0.19981,0.60018 -0.48647,1.28011 -0.85998,2.03979 -0.37356,0.75969 -0.90701,1.42619 -1.60034,1.99952 -0.69338,0.57332 -1.45307,0.85998 -2.27906,0.85998 -0.9074,0 -1.64105,-0.3066 -2.20092,-0.9198 -0.55992,-0.6132 -0.83986,-1.38651 -0.83985,-2.31995 -1e-5,-0.45328 0.49335,-2.12646 1.4801,-5.01953 0.98672,-2.89305 1.48009,-5.00649 1.48011,-6.34033 -2e-5,-1.73338 -0.6535,-2.60008 -1.96045,-2.6001 -0.77313,2e-5 -1.51959,0.21344 -2.23938,0.64026 -0.71982,0.42686 -1.32651,0.94016 -1.82007,1.53992 -0.49358,0.59979 -0.89357,1.15968 -1.19995,1.67969 -0.30641,0.52003 -0.52634,0.95338 -0.65979,1.30005 -0.0537,0.16033 -0.90699,3.53394 -2.55982,10.12085 -0.21403,1.30615 -0.78736,1.95922 -1.71997,1.95922 -0.32064,0 -0.58757,-0.0999 -0.80078,-0.29968 -0.21322,-0.19979 -0.31983,-0.47302 -0.31982,-0.8197 z"
         style="fill:#000000;stroke:#000000;stroke-opacity:1;fill-opacity:1"
         id="path4235" />
      <path
         d="m 365.43362,519.26697 c 0,-0.77311 0.6132,-2.94637 1.8396,-6.51978 1.2264,-3.57339 1.83959,-5.48013 1.8396,-5.72021 -10e-6,-0.26691 -0.17334,-0.43374 -0.52002,-0.50049 -0.34668,-0.0667 -0.74667,-0.10008 -1.19995,-0.1001 -0.45329,2e-5 -0.73324,-0.0399 -0.83984,-0.11963 -0.26693,-0.18634 -0.29338,-0.45286 -0.0793,-0.79956 0.10661,-0.13344 0.28646,-0.22683 0.53955,-0.28015 0.25309,-0.0533 0.65307,-0.0999 1.19996,-0.13977 0.54686,-0.0399 1.00666,-0.0867 1.37939,-0.14038 0.13345,-0.0268 0.24698,-0.0535 0.34058,-0.08 0.0936,-0.0264 0.16702,-0.0464 0.22033,-0.0598 0.0533,-0.0134 0.17313,-0.0268 0.3595,-0.0403 0.18635,-0.0134 0.4663,-0.0201 0.83984,-0.0202 l 0.15992,0 c 0.61359,2e-5 0.92039,0.17336 0.92041,0.52002 -2e-5,0.0537 -0.15993,0.76052 -0.47974,2.12036 -0.10662,0.42645 -0.19329,0.71962 -0.26001,0.87952 -0.0667,0.15993 -0.11354,0.2466 -0.14038,0.26001 -0.0269,0.0134 -0.0936,0.12676 -0.2002,0.33997 -0.10662,0.21323 -0.23967,0.55991 -0.39917,1.04004 -0.507,1.52019 -1.10718,3.30689 -1.80053,5.3601 -0.98634,2.93376 -1.4795,4.64071 -1.4795,5.12085 0,0.77312 0.30639,1.15967 0.91919,1.15967 0.31982,0 0.65307,-0.0867 0.99976,-0.26001 0.34667,-0.17334 0.77351,-0.64677 1.28052,-1.42029 0.50699,-0.77351 0.94684,-1.81335 1.31958,-3.1195 0.1603,-0.56071 0.4138,-0.84106 0.7605,-0.84107 0.37352,10e-6 0.56029,0.17335 0.5603,0.52002 -1e-5,0.18718 -0.10011,0.57414 -0.30029,1.16089 -0.20021,0.58676 -0.48687,1.25997 -0.85999,2.01965 -0.37314,0.75969 -0.90638,1.42619 -1.59973,1.99952 -0.69337,0.57332 -1.45346,0.85998 -2.28027,0.85998 -0.90659,0 -1.63982,-0.29989 -2.19971,-0.89966 -0.5599,-0.59977 -0.83985,-1.36637 -0.83985,-2.2998 z m 4.6399,-21.56006 c -10e-6,-0.45326 0.18655,-0.8799 0.55969,-1.27991 0.37312,-0.39996 0.81318,-0.59995 1.32019,-0.59997 0.37271,2e-5 0.69253,0.12006 0.95947,0.3601 0.26692,0.2401 0.40038,0.55992 0.40039,0.95948 -1e-5,0.48016 -0.19329,0.91351 -0.57983,1.30005 -0.38657,0.38657 -0.81992,0.57985 -1.30005,0.57983 -0.4004,2e-5 -0.72714,-0.11981 -0.98022,-0.3595 -0.25311,-0.23964 -0.37965,-0.55967 -0.37964,-0.96008 z"
         style="fill:#000000;stroke:#000000;stroke-opacity:1;fill-opacity:1"
         id="path4237" />
      <path
         d="m 377.17313,515.90637 c -1e-5,-2.93293 1.0734,-5.59264 3.22021,-7.97912 2.1468,-2.38646 4.46003,-3.5797 6.9397,-3.57972 1.22638,2e-5 2.24628,0.31985 3.05969,0.95948 0.81338,0.63966 1.22007,1.46648 1.22009,2.48047 -2e-5,0.82602 -0.21323,1.4325 -0.63964,1.81945 -0.42645,0.38698 -0.89317,0.58046 -1.40015,0.58045 -0.37355,10e-6 -0.68687,-0.12003 -0.93994,-0.36011 -0.25311,-0.24006 -0.37966,-0.54686 -0.37964,-0.92041 -2e-5,-0.2132 0.0399,-0.43985 0.11963,-0.67993 0.0797,-0.24006 0.27973,-0.50007 0.59997,-0.78003 0.32022,-0.27993 0.74685,-0.44676 1.27991,-0.50049 -0.53306,-1.11977 -1.49294,-1.67967 -2.87964,-1.67969 -0.42726,2e-5 -0.88746,0.0934 -1.38061,0.28015 -0.49318,0.18679 -1.07301,0.52024 -1.73951,1.00037 -0.66651,0.48016 -1.31308,1.28013 -1.93969,2.3999 -0.62664,1.11981 -1.15358,2.47967 -1.58081,4.07959 -0.48015,1.76026 -0.72023,3.22714 -0.72022,4.40064 -10e-6,1.14665 0.26,2.11996 0.78003,2.91992 0.52001,0.79997 1.31347,1.19995 2.38037,1.19995 0.96028,0 1.90042,-0.17334 2.82044,-0.52002 0.91999,-0.34668 1.71995,-0.81339 2.3999,-1.40014 0.67991,-0.58675 1.15314,-1.01339 1.41968,-1.27991 0.2665,-0.26652 0.53322,-0.57312 0.80017,-0.9198 l 0.0403,-0.0403 c 0.18634,-0.13345 0.37962,-0.12674 0.57983,0.0202 0.20018,0.14689 0.30028,0.31352 0.3003,0.49987 -2e-5,0.31983 -0.34019,0.82642 -1.02051,1.51978 -0.68036,0.69336 -1.71368,1.37329 -3.09998,2.03979 -1.38632,0.66651 -2.82614,0.99976 -4.31945,0.99976 -1.76027,0 -3.18706,-0.6132 -4.2804,-1.8396 -1.09335,-1.2264 -1.64002,-2.79988 -1.64001,-4.72046 z"
         style="fill:#000000;stroke:#000000;stroke-opacity:1;fill-opacity:1"
         id="path4239" />
      <path
         d="m 408.5098,518.58704 c -10e-6,-0.82682 0.21321,-1.44694 0.63964,-1.86036 0.42643,-0.4134 0.87972,-0.62011 1.35987,-0.62011 0.40038,0 0.72712,0.12675 0.98022,0.38025 0.25309,0.2535 0.37963,0.56702 0.37964,0.94055 -10e-6,0.39958 -0.15992,0.81279 -0.47974,1.23962 -0.31982,0.42684 -0.83984,0.65369 -1.56005,0.68054 0.58674,1.49333 1.8933,2.23999 3.91967,2.23999 1.65364,0 2.92704,-0.48685 3.82019,-1.46057 0.89314,-0.97371 1.33971,-1.98018 1.33973,-3.01941 -2e-5,-0.64045 -0.18658,-1.1739 -0.5597,-1.60034 -0.37314,-0.42642 -0.75298,-0.70637 -1.13952,-0.83984 -0.38657,-0.13346 -0.93324,-0.28015 -1.64002,-0.44007 -0.70679,-0.1599 -1.15377,-0.26671 -1.34094,-0.32043 -0.69337,-0.21321 -1.29985,-0.6199 -1.81946,-1.22009 -0.51962,-0.60017 -0.77942,-1.39342 -0.77942,-2.37976 0,-1.38671 0.54646,-2.72663 1.63941,-4.01978 1.09292,-1.29311 2.65298,-1.93968 4.68017,-1.9397 1.25324,2e-5 2.27986,0.31334 3.07984,0.93995 0.79995,0.62664 1.19993,1.45997 1.19995,2.5 -2e-5,0.74627 -0.17336,1.29273 -0.52002,1.6394 -0.3467,0.34669 -0.73325,0.52003 -1.15967,0.52002 -0.31984,10e-6 -0.59328,-0.1066 -0.82031,-0.31982 -0.22707,-0.21321 -0.34059,-0.47973 -0.34058,-0.79957 -10e-6,-0.34666 0.13345,-0.6734 0.40039,-0.98022 0.26692,-0.30679 0.64045,-0.51349 1.12061,-0.62012 -0.42726,-1.30695 -1.42742,-1.96043 -3.00049,-1.96045 -1.28012,2e-5 -2.26686,0.39349 -2.9602,1.18042 -0.69337,0.78696 -1.04005,1.60687 -1.04004,2.45972 -1e-5,0.18637 0.0201,0.35971 0.0604,0.52002 0.0403,0.16033 0.0871,0.30051 0.14038,0.42053 0.0533,0.12005 0.12654,0.23337 0.21973,0.33997 0.0932,0.10662 0.17984,0.1998 0.26001,0.27954 0.0802,0.0798 0.18025,0.15301 0.30029,0.21973 0.12003,0.0667 0.22664,0.12004 0.31983,0.15991 0.0932,0.0399 0.20649,0.08 0.33996,0.12024 0.13345,0.0403 0.22684,0.0672 0.28015,0.0806 0.0533,0.0134 0.13325,0.0334 0.23987,0.0598 0.1066,0.0265 0.17313,0.0397 0.19959,0.0397 0.0264,1e-5 0.14647,0.02 0.3601,0.0598 0.21361,0.0399 0.40038,0.08 0.56031,0.12023 0.1599,0.0403 0.38654,0.10032 0.67993,0.18006 0.29336,0.0798 0.54666,0.17966 0.75989,0.29968 0.2132,0.12005 0.45978,0.26002 0.73974,0.41992 0.27993,0.15992 0.52001,0.35341 0.72022,0.58045 0.20018,0.22706 0.38694,0.47384 0.5603,0.74035 0.17332,0.26653 0.30658,0.58636 0.39978,0.95948 0.0932,0.37313 0.13975,0.77332 0.13977,1.20056 -2e-5,0.66651 -0.13999,1.36638 -0.41992,2.09961 -0.27997,0.73324 -0.69338,1.45996 -1.24024,2.18017 -0.54689,0.72022 -1.32691,1.31348 -2.34008,1.77979 -1.0132,0.46631 -2.17327,0.69946 -3.48023,0.69946 -1.51937,0 -2.76571,-0.3599 -3.73901,-1.07971 -0.97331,-0.71981 -1.45997,-1.65303 -1.45996,-2.79968 z"
         style="fill:#000000;stroke:#000000;stroke-opacity:1;fill-opacity:1"
         id="path4241" />
      <path
         d="m 426.23563,515.90637 c -1e-5,-2.90608 1.06668,-5.55907 3.20007,-7.95898 2.13337,-2.39989 4.45332,-3.59984 6.95984,-3.59986 1.76024,2e-5 3.17361,0.61322 4.24011,1.8396 1.06647,1.22642 1.59971,2.81292 1.59973,4.75953 -2e-5,2.9069 -1.06671,5.55359 -3.20007,7.94006 -2.1334,2.38647 -4.45334,3.57971 -6.95984,3.57971 -1.73341,0 -3.14006,-0.6132 -4.21997,-1.8396 -1.07992,-1.2264 -1.61988,-2.79988 -1.61987,-4.72046 z m 2.83935,1.56006 c -10e-6,1.28011 0.27343,2.28028 0.82031,3.00049 0.54687,0.72021 1.28702,1.08032 2.22046,1.08032 1.41357,0 2.74698,-0.73323 4.00025,-2.19971 0.95945,-1.14664 1.7525,-2.75349 2.37915,-4.82055 0.62661,-2.06705 0.93992,-3.78051 0.93994,-5.14038 -2e-5,-1.2801 -0.27997,-2.28677 -0.83984,-3.02002 -0.55992,-0.73322 -1.30658,-1.09984 -2.23999,-1.09986 -1.35988,2e-5 -2.67987,0.74668 -3.95997,2.23999 -0.95948,1.11981 -1.75273,2.72646 -2.37976,4.81995 -0.62704,2.09351 -0.94056,3.80677 -0.94055,5.13977 z"
         style="fill:#000000;stroke:#000000;stroke-opacity:1;fill-opacity:1"
         id="path4243" />
      <path
         d="m 446.02567,518.86658 c -10e-6,-0.31982 0.13345,-1.05306 0.40039,-2.19971 l 4.63989,-18.51929 c 0.18716,-0.74704 0.28075,-1.22719 0.28076,-1.44043 -10e-6,-0.48011 -0.46672,-0.7269 -1.40015,-0.74035 -0.93343,-0.0134 -1.427,-0.1666 -1.48071,-0.4596 -0.026,-0.24004 0.0409,-0.42681 0.20081,-0.5603 0.1599,-0.13344 0.28645,-0.20688 0.37964,-0.22034 0.0932,-0.0134 0.24637,-0.0331 0.45959,-0.0592 0.40038,-0.0268 0.95377,-0.0736 1.66016,-0.14038 0.70637,-0.0667 1.30634,-0.12672 1.79992,-0.18006 0.49356,-0.0533 0.7668,-0.0799 0.81971,-0.0799 0.45327,3e-5 0.67991,0.18679 0.67993,0.5603 -2e-5,0.10664 -0.0267,0.2399 -0.08,0.39978 -0.0533,0.15994 -0.08,0.25332 -0.08,0.28015 l -5.52001,22.23999 c -0.23927,1.04004 -0.3589,1.78671 -0.35889,2.23999 -10e-6,1.04004 0.34626,1.56006 1.03882,1.56006 0.21402,0 0.42764,-0.0667 0.64087,-0.20019 0.2132,-0.13347 0.40648,-0.34017 0.57983,-0.62012 0.17333,-0.27995 0.32673,-0.54667 0.4602,-0.80017 0.13346,-0.2535 0.26001,-0.57353 0.37964,-0.96009 0.11962,-0.38655 0.2128,-0.69315 0.27954,-0.9198 0.0667,-0.22663 0.14689,-0.52001 0.24048,-0.88012 0.0936,-0.3601 0.14037,-0.55318 0.14038,-0.57923 0.13346,-0.45409 0.3601,-0.68114 0.67994,-0.68115 0.37352,10e-6 0.56029,0.17335 0.5603,0.52002 -10e-6,0.58676 -0.28037,1.64022 -0.84107,3.1604 -0.77312,1.91976 -1.85303,2.87964 -3.23974,2.87964 -0.98634,0 -1.7863,-0.34648 -2.3999,-1.03943 -0.61362,-0.69295 -0.92042,-1.54642 -0.92041,-2.56042 z"
         style="fill:#000000;stroke:#000000;stroke-opacity:1;fill-opacity:1"
         id="path4245" />
      <path
         d="m 457.543,519.26697 c -1e-5,-0.77311 0.61319,-2.94637 1.8396,-6.51978 1.22639,-3.57339 1.83959,-5.48013 1.8396,-5.72021 -10e-6,-0.26691 -0.17335,-0.43374 -0.52002,-0.50049 -0.34669,-0.0667 -0.74667,-0.10008 -1.19995,-0.1001 -0.4533,2e-5 -0.73324,-0.0399 -0.83985,-0.11963 -0.26693,-0.18634 -0.29338,-0.45286 -0.0793,-0.79956 0.1066,-0.13344 0.28645,-0.22683 0.53955,-0.28015 0.25308,-0.0533 0.65307,-0.0999 1.19995,-0.13977 0.54687,-0.0399 1.00666,-0.0867 1.37939,-0.14038 0.13346,-0.0268 0.24698,-0.0535 0.34058,-0.08 0.0936,-0.0264 0.16702,-0.0464 0.22034,-0.0598 0.0533,-0.0134 0.17312,-0.0268 0.35949,-0.0403 0.18636,-0.0134 0.4663,-0.0201 0.83985,-0.0202 l 0.15991,0 c 0.6136,2e-5 0.9204,0.17336 0.92041,0.52002 -10e-6,0.0537 -0.15992,0.76052 -0.47974,2.12036 -0.10661,0.42645 -0.19328,0.71962 -0.26001,0.87952 -0.0667,0.15993 -0.11353,0.2466 -0.14038,0.26001 -0.0269,0.0134 -0.0936,0.12676 -0.20019,0.33997 -0.10662,0.21323 -0.23968,0.55991 -0.39917,1.04004 -0.50701,1.52019 -1.10719,3.30689 -1.80054,5.3601 -0.98633,2.93376 -1.4795,4.64071 -1.47949,5.12085 -10e-6,0.77312 0.30639,1.15967 0.91919,1.15967 0.31981,0 0.65307,-0.0867 0.99975,-0.26001 0.34667,-0.17334 0.77351,-0.64677 1.28052,-1.42029 0.50699,-0.77351 0.94685,-1.81335 1.31958,-3.1195 0.16031,-0.56071 0.41381,-0.84106 0.7605,-0.84107 0.37352,10e-6 0.56029,0.17335 0.5603,0.52002 -1e-5,0.18718 -0.10011,0.57414 -0.30029,1.16089 -0.20021,0.58676 -0.48687,1.25997 -0.85999,2.01965 -0.37313,0.75969 -0.90638,1.42619 -1.59973,1.99952 -0.69337,0.57332 -1.45346,0.85998 -2.28027,0.85998 -0.90658,0 -1.63982,-0.29989 -2.19971,-0.89966 -0.5599,-0.59977 -0.83985,-1.36637 -0.83984,-2.2998 z m 4.63989,-21.56006 c -10e-6,-0.45326 0.18656,-0.8799 0.55969,-1.27991 0.37312,-0.39996 0.81318,-0.59995 1.32019,-0.59997 0.37271,2e-5 0.69254,0.12006 0.95948,0.3601 0.26691,0.2401 0.40037,0.55992 0.40039,0.95948 -2e-5,0.48016 -0.19329,0.91351 -0.57984,1.30005 -0.38656,0.38657 -0.81991,0.57985 -1.30004,0.57983 -0.40041,2e-5 -0.72715,-0.11981 -0.98023,-0.3595 -0.2531,-0.23964 -0.37965,-0.55967 -0.37964,-0.96008 z"
         style="fill:#000000;stroke:#000000;stroke-opacity:1;fill-opacity:1"
         id="path4247" />
      <path
         d="m 469.24222,516.26648 c -10e-6,-2.93293 0.9733,-5.65266 2.91992,-8.15918 1.94661,-2.50649 4.02668,-3.75975 6.24023,-3.75977 1.52017,2e-5 2.64037,0.78656 3.3606,2.35962 0.2132,-0.93341 0.53302,-2.22003 0.95947,-3.85986 0.42642,-1.63979 0.77961,-3.01979 1.05957,-4.14001 0.27993,-1.12018 0.41991,-1.78689 0.41992,-2.00013 -1e-5,-0.48011 -0.47995,-0.7269 -1.43981,-0.74035 -0.9599,-0.0134 -1.43984,-0.20648 -1.43982,-0.57923 -2e-5,-0.42722 0.41339,-0.68071 1.24023,-0.76049 2.71971,-0.24005 4.093,-0.36008 4.11987,-0.36011 0.42641,3e-5 0.63963,0.18679 0.63965,0.5603 -2e-5,0.21324 -0.0533,0.47976 -0.15991,0.79956 l -5.31982,21.15967 c -0.37356,1.46729 -0.56032,2.52075 -0.56031,3.1604 -1e-5,1.06689 0.34667,1.60034 1.04004,1.60034 0.40037,0 0.77391,-0.22664 1.12061,-0.67993 0.34666,-0.45329 0.59995,-0.90657 0.75989,-1.35986 0.15989,-0.45329 0.33994,-1.04675 0.54016,-1.7804 0.20017,-0.73364 0.31329,-1.15376 0.33935,-1.26038 0.10659,-0.37352 0.33323,-0.56029 0.67993,-0.5603 0.37352,10e-6 0.56028,0.17335 0.56031,0.52002 -3e-5,0.13347 -0.0265,0.30681 -0.0793,0.52002 -0.45331,1.76026 -0.96682,3.12032 -1.54053,4.0802 -0.57375,0.95988 -1.40708,1.43982 -2.5,1.43982 -0.74627,0 -1.41949,-0.22664 -2.01965,-0.67993 -0.60019,-0.45329 -1.00689,-1.15967 -1.22009,-2.11914 -1.68052,1.86605 -3.29388,2.79907 -4.84009,2.79907 -1.44044,0 -2.61394,-0.57983 -3.52051,-1.7395 -0.90658,-1.15967 -1.35987,-2.64648 -1.35986,-4.46045 z m 2.71972,1.76025 c 0,0.90658 0.17334,1.71998 0.52002,2.44019 0.34668,0.72021 0.92,1.08032 1.71997,1.08032 0.90738,0 1.84102,-0.46 2.80091,-1.38 0.95986,-0.92 1.61314,-1.74011 1.95984,-2.46033 0.0529,-0.13346 0.43272,-1.56677 1.13952,-4.29993 0.70677,-2.73314 1.06017,-4.23318 1.06018,-4.50012 -10e-6,-0.63963 -0.22666,-1.40624 -0.67993,-2.2998 -0.4533,-0.89354 -1.14666,-1.34032 -2.08008,-1.34034 -1.17351,2e-5 -2.30673,0.81341 -3.39965,2.44019 -0.85369,1.22641 -1.57391,2.99297 -2.16065,5.29968 -0.58676,2.30673 -0.88013,3.98011 -0.88013,5.02014 z"
         style="fill:#000000;stroke:#000000;stroke-opacity:1;fill-opacity:1"
         id="path4249" />
    </g>
  </g>
  <g
     inkscape:groupmode="layer"
     id="layer4"
     inkscape:label="Layer" />
</svg>
